<svg xmlns="http://www.w3.org/2000/svg" viewBox="0 0 1000 834">
	<g id="county-fills" fill="#ccc" stroke="#fff">
		<path class="laclede" d="m523 531.1-18.5-8.8c-2.5-1.2 0-23.9-.2-26.7-2.1-.3-2.1.9-3.4 1.9-.6.5-1 .4-1.7.7-1 .5 0 1.5-.7 2-2.5 1.6-5.2-1.5-7.4 1.6-.9 1.2-6.6 4.5-8.2 4.9.2 0-4.8-4-5.3-4.6-2-2.2-4.2-6.3-4.3-9.3-.2-4-5.8-2.3-8.8-2.4-8.7-.2-18.7-2-27.3-.4a577.3 577.3 0 0 0-.7 28.9c0 1.8 2.1.9 2 4.3l-.7 39.1c8-.6 16.4.4 24.5.7l65.1 1.2.4-23.1c.4-6.3.5-7.2-4.9-9.8Z"/>
		<path class="macon" d="M437.3 167.7c8.4.2 17.5-.7 25.7 1.4-1.3 4.8-.6 10.5-2.5 14.7l59.8.2c.3-20.4 1.2-40.8 1.8-61.3-6-.2-8.7 1.7-8.6-4.6 0-2.6 1.5-9.9-.7-11.3l-74.6.7c-.4 19.8-2 40.3-.9 60.1Z"/>
		<path class="gentry" d="M234.5 89.3V45l-57.2-.6c-.2 15.5-1.2 31-1.7 46.5v15.3c19.6.1 39 .4 58.5 1l.4-17.9Z"/>
		<path class="callaway" d="M543.6 292.1c-1 3.5-.5 7-1.6 10.5-1 3.1-1.7 5.9-2.5 9.1 4 1 .6 2.3 1.1 4.3.3 1.3 2.2 3.8 3.1 4.7-.5 1.1-1.5 1.1-.5 2.1-1.5.7 1.9 7-1.5 6 0 1.6-.4 2.4-1.6 3.4-1 .9.5 1 .3 1.6l-1.8 3.2c-.3.6-2.5.2-1.2 2 0 .1-2.3 3.4-2.8 3.5-1.8.5-3.4 1.9-3.2 4.2.1 2.6 3.1 2 4 3.4 1.8 2.6.2 5.7-2.5 7.4 2.3 3.1 2.1 6 5.5 8.5 2.6 1.9 6.6 3.7 9.9 4.4 3.6.7 9 .9 12.4-.6 3.9-1.7 6.5-4.6 11-5.4 5.2-4.2 10.6-13.1 17.1-14.5 4-.8 8.7 0 12.2-2.9 4.7-4 9.8-1.6 15.4-1.7.6-21.1 2.5-42.9 1.6-64l-69.7-.8c-5.5-2.1-4.2 9.5-4.8 11.6Z"/>
		<path class="boone" d="m500.7 247.8-12.6 28.5c-2.6 5.9-8.9 15.2-7.1 21.9 3.7 1.8 7.5 5.5 9.7 8.8 3 3.3 2.5 7.6 5.2 11 1.9 2.4 4.2 5.5 7 7 1.1.6 2.6-.6 3.5.7 1.3 1.8 1.1 3.6-.2 5.3-2 2.6-3.1 6.4.2 8.5 3.4.8 8 2.1 6.2 6.1-1.6 3.5-.6 5.6 3.5 5.9 4.5.3 5.5 1.2 9 2.9 2.7 1.3 5.9.6 7.9 3 2.7-1.7 4.3-4.8 2.5-7.4-.9-1.3-3.9-.8-4-3.4a4 4 0 0 1 3.2-4.2c.5-.1 2.9-3.4 2.8-3.5-1.3-1.8.9-1.4 1.2-2l1.8-3.2c.2-.6-1.3-.6-.3-1.6 1.1-1 1.6-1.8 1.6-3.4 3.4 1 0-5.3 1.5-6-1-1 0-1 .5-2.1-.9-.9-2.8-3.3-3.1-4.7-.5-2 2.9-3.3-1.1-4.3.8-3.2 1.5-6 2.5-9.1 1.1-3.5.6-7 1.6-10.5.6-2.1-.7-13.7 4.8-11.6-.4-4.7.3-9.6.4-14.3 0-2.5 2.4-15.2.7-17-1.7-1.8-12.3-.6-14.6-.7l-17.1-.7c-5.7 0-11.5-.4-17.2-.1Z"/>
		<path class="sullivan" d="M438.2 107.6c-3.6-2.3-1.2-21.1-1.2-26.5V53.4l.4-7.3H381.3c-4.8 0-16.6 2.6-20.1-1.5l-.4 22.4c0 13.8.3 27.6.5 41.3 25.6-.3 51.3-.7 76.9-.8Z"/>
		<path class="daviess" d="M236.3 116.2c0 4.2 0 8.4-.2 12.6-.2 7.7-.7 15.8-.2 23.5 21.9.2 44.5 2.1 66.4.5v-31.1c-.1-10.7-.6-20.7-.8-31.6-22.3 0-44.6-.4-66.9-1l-.4 17.9c4.3-.8 2.2 6.3 2.2 9.1Z"/>
		<path class="grundy" d="m361.6 120.5-.3-12.1c-.3-13.8-.6-27.6-.5-41.3h-58.9l-.5 23.2c.2 10.8.7 20.8.8 31.6l59.3-1.3Z"/>
		<path class="adair" d="M438.2 107.6c24.9-.3 49.8-.6 74.6-.7.2-15.6 0-31.1 0-46.7l-.7-7.7c-16.6.1-33.1.4-49.7.7l-25.5.2v27.7c0 5.3-2.4 24.2 1.2 26.5Z"/>
		<path class="phelps" d="M592.3 508.9h41.8c0-10.2 0-20.4.2-30.6 0-7.6.2-15.1.3-22.7 0-3.1 1.5-12.6-1.5-12.7h-14.2l-.2 18.8-38.4-.6c-1.1 0-2.4 1.7-3.6 2-.8.2-.7 1.1-1.5 1.3-1 .3-1.6-.8-2.7-.7-2.3.1-2.7 2.8-3.3 4.7-.4 1.3-7 .4-8.5.4-.1 13.2-.5 26.5 0 39.6 0 1.4 1.4 1.5.7 2.9-.7 1.5-.4 3.2-.4 4.8 0 2.9-.3 5-.4 7.5-.3 5.9 0 11.9-.1 17.9 10.4.2 20.9.6 31.3 1 .4-11.3 1.1-22.8.6-33.6Z"/>
		<path class="reynolds" d="M750.6 585.4c.2-4.1-4.1.2-4.1-4.8l.2-37.9c0-4.2-51.2 1.4-57.5 1.3l-23.2-.3.2 13.6c0 3.6 7.3 2.2 10.3 2.3 5.5.3 4.2 1.1 4.1 6.6l-.2 9.4c4.4.2 6-1 6 3.6l.1 10.7c0 3.6 2.9 2.1 2.9 4.3 0 3.1-.7 7.8.9 9.5.7.7 3.4-.2 3.9.6 1.2 1.7-1.3 2.4-1.3 2.5-.1 2 .1 4 .2 6 0 .8 3.1 1.1 3.4.5 1.8-3.4 2.7 2.6 2.9 4.2.5-.3 4 2.3 3.2 2.4 1.4.2 3.2-.3 4.5-.4l.2 3c.2 2.7 1.8.6 2.2 1.8.7 2.1.2 5 .4 7.2 8.3-.6 8-.1 7.8 7.7 9.1.1 18.2.6 27.3.9-.1-3.2.2-6.5.3-9.7l.2-5.8c0-.8 3 .1 3.4-.4.6-.8.3-2.8.3-3.7 0-1.6 2.3 0 2.3-1.5 0-3.5.2-7 .4-10.5-.8-1.7-.3-5.3-.2-7.6-3.8.5-1.4-12.5-1.3-15.5Z"/>
		<path class="dent" d="M676.5 559.6c-3-.1-10.2 1.3-10.3-2.3l-.2-13.6 23.2.3c0-6.3-.4-12.6.2-18.9-6.9.4-14.2-.5-21.2-.8-4.6-.2-2-10.9-1.9-14.8-10.5.8-21.6-.4-32.2-.7h-41.8c.5 10.8-.2 22.3-.6 33.6 4.8.3 8.3-1.3 8.4 3.8 0 6 .2 11.9.3 17.9 0 2.1-.6 9.3.9 9.3l15 .5 64.1 1.6.2-9.4c0-5.5 1.4-6.3-4.1-6.6Z"/>
		<path class="pulaski" d="M560.5 523.6c.1-2.5.4-4.7.4-7.5 0-1.6-.4-3.4.4-4.8.7-1.4-.7-1.5-.7-2.9-.6-13.2-.2-26.4 0-39.6l-23.3-.9-32.3-.7c.5 9.4-.3 19-.5 28.4.2 2.8-2.4 25.5.2 26.7l18.5 8.8c5.4 2.6 5.4 3.5 4.9 9.8l32.4.6c0-5.9-.2-11.9.1-17.9Z"/>
		<path class="osage" d="M601 347c-3.5 3-8.2 2.1-12.2 2.9-6.6 1.3-11.9 10.2-17.1 14.5-1.4 3.7-8.1 3.7-10.2 6.7-2.5 3.6 2.9 7.5.8 12-1.9 4.1-7.2 5.1-11.1 6.2-4 1.1-7.9-2.5-11.6-1 1.6 1.8 1.1 5.2 4.1 6.1 2.4.7 4.1 5.4 3.1 7.5-1.3 2.9-4.4 2.4-6.9 3-1.8.4-1.8-1-3.5 1.2-.8 1.1-.6 4-.5 5.3v8c27.6.3 53.7-.5 81-.2a9078 9078 0 0 1-.5-73.8c-5.6 0-10.7-2.3-15.4 1.7Z"/>
		<path class="gasconade" d="M616.7 432.5c0 2.5-1.9 11 2 10.4h14.2l.4-9.6c0-.8 5.3-.3 6.1-.3 6 0 12.1-.1 18.1.3.2-3.7 2.9-36 .3-36.7 1.4-16.8-.1-33.5 0-50.3-2.3-1.1-4.8-2.7-7.5-2.6-6.3-.3-11.8 2.8-17.2 5-7 2.8-10.6-3.8-16.9-3.3 0 24.6.2 49.2.5 73.8l-.2 13.3Z"/>
		<path class="crawford" d="M639.5 433c-.8 0-6.1-.5-6.1.3l-.4 9.6c3 .2 1.6 9.6 1.5 12.7 0 7.6-.2 15.1-.3 22.7l-.2 30.6c10.6.3 21.7 1.5 32.2.7 0 3.9-2.7 14.6 1.9 14.8 7 .3 14.3 1.2 21.2.8 2.4 0 1.2-5 1.2-7 0-.9 5.6-.6 6.7-.6 1.2-14.4.9-29.1 1.3-43.5.3-13 .9-26.6-.2-39.5-13.6 0-27.2.3-40.8-.1v-1c-5.9-.4-12-.2-18.1-.3Z"/>
		<path class="iron" d="M690.6 518.1c0 2 1.1 7.1-1.2 7-.5 6.2-.1 12.6-.2 18.9 6.3.1 57.5-5.5 57.5-1.3l-.2 37.9c0 5 4.3.7 4.1 4.8-.1 3-2.5 16 1.3 15.5 6.4 0 12.7-.2 19.1-.3l7.9-.1c.5 0 .8-6.3.8-6.8-.2-11 0-22 0-33l.1-16.6c0-1.6 1.7-.7 1.7-1.7l.5-7.7c-3.2 0-15.5 1.8-17.1-.4-1.5-2.1.5-13.6.7-16.2-22.8-.2-45.6 0-68.5-.7-1.1 0-6.7-.3-6.7.6Z"/>
		<path class="randolph" d="M458.9 234.6c14 4.3 27.8 8.8 41.7 13.3 5.7-.3 11.5 0 17.2.1.1-5.8 0-11.7.4-17.5 1-15.5 1.4-31 2-46.5l-59.8-.2c-.7 16.9-1.1 33.9-1.6 50.8Z"/>
		<path class="douglas" d="m462.6 636.8-31.8-.5c-1.5 15.3-1.3 31-1.8 46.4l21.2 1 97.4 1.6h2.8l1.1-46.4-25.2-.7-63.8-1.3Z"/>
		<path class="texas" d="M601.3 573.5c-1.5 0-.9-7.3-.9-9.3l-.3-17.9c0-5.1-3.7-3.4-8.4-3.8-10.4-.4-20.9-.8-31.3-1l-32.4-.6-.4 23.1c-.6 25.9 0 48.5-1.1 74.2l25.2.7 34.2.9c9.2.2 19.6 1.7 28.8.8.4-23.2 1.7-43.5 1.9-66.5l-15-.5Z"/>
		<path class="lawrence" d="m325.3 598.8-2.9.3c-21.1-.6-42.1-1-63.2-1.4l-1.1 42c.4 7.2-.2 14.6-.3 21.9l33.3.7c10.6.2 21.9 1.6 32.4.5l.3-12.1.7-19.1c-.5-10.8.5-21.9.8-32.7Z"/>
		<path class="shannon" d="M695.3 634.1c4.9 0 9.9-1.7 14.7-2.7-.1-2.2.3-5.2-.4-7.2-.4-1.3-2 .9-2.2-1.8l-.2-3c-1.3.1-3.2.6-4.5.4h-.3.3c.8-.1-2.7-2.7-3.2-2.4v.4c-.1-.2-.1-.3 0-.4-.2-1.6-1.1-7.5-2.9-4.2-.3.6-3.4.3-3.4-.5 0-2-.3-4-.2-6 0-.1 2.5-.8 1.3-2.5-.5-.8-3.2 0-3.9-.6-1.6-1.6-.9-6.4-.9-9.5 0-2.2-2.9-.5-2.9-4.3l-.1-10.7c0-4.6-1.7-3.3-6-3.6-21.4-.6-42.7-1.2-64.1-1.6-.1 23.1-1.5 43.4-1.9 66.5v29c21.7.2 43.5.5 65.2.9 0-11.4.3-22.7.4-34.1 0-4.5 11.4-2.2 15.3-2.2Z"/>
		<path class="christian" d="M420.4 633.4c-5-.1-10.1 0-15-.6-14.7 1.4-30.3-.5-45.1-.8l-35.8-.5-.7 19.1 40.6.9c.8 0 .1 15.9.1 17.4l-.1 11.5c0 2.1 3.5 1.3 5.2 1.4l59.4.8c.5-15.3.2-31.1 1.8-46.4 1.2-4.7-7.6-2.8-10.4-2.9Z"/>
		<path class="carter" d="M758.4 655.7c0-1.4-2.8.3-2.8-1.2 0-1 .4-3.4 0-4.3-.8-1.5-3.1 1.2-3.2-1.5v-7.2c0-2.4-5-1.5-7.1-1.6-9.1-.3-18.2-.8-27.3-.9.2-7.8.5-8.2-7.8-7.7-4.8 1-9.8 2.7-14.7 2.7s-15.2-2.3-15.3 2.2l-.4 34.1c0 1.8-.9 10.2.8 10.2l15.4.6c22.5.2 44.9 1.4 67.4 1.5v-11.5c0-1.4-2 0-2-2.5 0-2 0-4.1-.2-6.1-3.9.6-2.6-4.1-2.7-6.9Z"/>
		<path class="stoddard" d="M867.7 637.8c-1.1 1-4.7-.9-4.9 1-.2 2.4-.5 1.9-2.9 1.9h-14.6c-5.4.1-5.6-.7-5.9 4.8-.2 2.6-2.1.9-2.2 2.4 0 1.1.3 3.1-.9 3.2-3.3.3-.5 1.1-2.2 3-1 1.1-2.3-1.1-2.4 1.1-.1 2.2-2.8 0-3 1.9 0 1.1-.2 2.4-.1 3.5-3.1 0-2.1 2.6-5.2 2.2v.3h0c.7 1.5 1.6 2.8.2 4.2 3.9.4 0 2.8.3 4.2.3 1.4 3 2.8 4 4 2.1 2.7.3 2.2 1.3 4.8 1.1 3 4.3 4.4 2.2 8.2-1.1 1.9 8.8 9 7.5 12-.7 1.4 1.2 3.6 1.1 5.2-.2 2.6 2.4 4.7-.4 4.8 1.6 1.6 1.2 3.6 0 4.9h29l23.3.5 12.2.2c2.5 0 1.5-3.2 1.6-5.3l.2-19.5c0-3-1.7-16.5.8-17.1-.4-4.6 1.8-9.8-.3-14.3-.9-1.9-1.9-2.4-2.5-4.3-.8-2.6-.7-4.1-2.2-6.7-1-1.9-3.1-2.8-4.1-4.8-.5-1 .9-2.7-.7-3.7-4-2.6-1.6-10.7-1-14.1l-13.7-.2h-13.4c-1.3 0 .3 10.8-.7 11.8Z"/>
		<path class="wayne" d="m828.5 660.6.1-3.5c.1-1.8 2.8.3 3-1.9.1-2.2 1.4 0 2.4-1.1 1.7-1.9-1.1-2.7 2.2-3 1.2-.1.8-2.1.9-3.2.1-1.5 2 .1 2.2-2.4.4-5.5.5-4.7 5.9-4.8 0-5.6 1.3-6.7-4.5-6.8l-11.3.2c0-13.4.1-26.8 0-40.3h-49.6c0 .5-.3 6.8-.8 6.8l-7.9.1c-6.4 0-12.7.2-19.1.3 0 2.3-.6 6 .2 7.6-.2 3.5-.4 7-.4 10.5 0 1.5-2.2 0-2.3 1.5 0 .9.2 2.9-.3 3.7-.4.5-3.4-.5-3.4.4l-.2 5.8c-.1 3.2-.4 6.5-.3 9.7 2.1.1 7.1-.9 7.1 1.6v7.2c0 2.7 2.3 0 3.2 1.5.5.9 0 3.3 0 4.3 0 1.4 2.8-.2 2.8 1.2.1 2.8-1.3 7.5 2.7 6.9 20.7 0 41.4.5 62.1.4v-.3c3.2.5 2.2-2.2 5.3-2.2Z"/>
		<path class="lafayette" d="M289.8 309.2c3 .1.3-5.2 1.9-5.2 16.6.4 33.2.4 49.7 1.2l.3-2.3c.6-20.1-.4-41.2 2.1-61.2-5.7 1.5.8 8.9-3.3 11.3-5.3 3.1-11.3-3-16-3.7-2.4-.4-3.6-1.4-6.1-.6-1.9.6-1.7 2-3.5 2.4-4.6.9-7.4 6-12.9 4.5-7.2.8-12.3-3.1-19.1 1.5-1.3.8-1.5 2.3-3.1 2.7-.8.2-1.7-.1-2.4.3-2.7 1.7-2.2 4.6-5.1 5.7-1.5.6-5.2 1.2-5.8-1.1-.4-1.4 2.4-3.6 2.8-5 2.1-7.2-5-1.3-8.8-.9 1.2 3.2 2.2 5.8-.7 8.1-2.5 1.9-6.5 1.2-9.1 0-1.2 13.5-.9 27.3-1.2 40.9l27.1.9 12.9.4Z"/>
		<path class="ray" d="M260.1 266.9c2.9-2.3 1.9-4.9.7-8.1 3.7-.3 10.9-6.2 8.8.9-.4 1.4-3.2 3.5-2.8 5 .6 2.3 4.3 1.7 5.8 1.1 2.8-1.1 2.4-4 5.1-5.7.7-.5 1.6-.1 2.4-.3 1.6-.4 1.9-1.9 3.1-2.7 6.8-4.6 11.9-.6 19.1-1.5l.3-57.3c-22.3 0-44.9 1.2-67.1 0l-.3 12.7c.5 14.7.8 29.8.2 44.5 3 .3 3.9-2.5 7 .4-3.7 4.4-2 2.7 2.3 4.3 2.7 1 4.9 4.4 6.4 6.7 2.6 1.2 6.6 1.9 9.1 0Z"/>
		<path class="johnson" d="M341.4 305.2c-16.5-.8-33.1-.9-49.7-1.2-1.6 0 1.2 5.3-1.9 5.2l-12.9-.4-27.1-.9c-.3 4.9-.7 9.8-.8 14.7l-.4 18.2c0 2.4-1.9 13.7 1.3 13.5-.4 4.1-.3 8.3-.4 12.4-.1 4.7 3.6 3 7.8 3.2 27.5.5 54.9 1.2 82.4 1.9 1.1-21.1 1-44.6 1.6-66.5Z"/>
		<path class="dekalb" d="m235.6 160.3.3-7.9c-.5-7.7 0-15.8.2-23.5l.2-12.6c0-2.8 2.1-9.9-2.2-9.1-19.5-.7-38.9-.9-58.4-1 .1 13.6 1 27.5.3 41.1l.2 13.1c19.8.5 39.7 0 59.6 0Z"/>
		<path class="dade" d="m322.9 573.5.6-26.8-68-1.8c-1.6 13.8-.8 28.3-1.2 42.2 0 2.2.2 4.4.1 6.7 0 4 .6 3.2 4.5 3.8l63.2 1.4.6-25.6Z"/>
		<path class="clinton" d="M235.6 160.3c-19.8 0-39.7.5-59.6 0 .1 12.2.4 24.5.3 36.7l.6 14.6 58.1-.5.3-12.7c-.9-12.6.1-25.5.2-38.1Z"/>
		<path class="cedar" d="M324.4 522.1c0-1 .8-5.1-.3-5.2-2.4-.2-2.8.3-2.8-2l.3-13-20.2-.9-7.6-.4c-.3 0 0-8.6.1-9.6 0-.8-34.7-1.6-37-1.7-1 16.4-.3 29.2-1.2 45.2V545l68 1.8.9-24.7Z"/>
		<path class="st_clair" d="m293.8 500.5 7.6.4 20.2.9 8.1.3.4-15.4c0-2.6 8.5 1 8.6-1.1.6-9.2 1.8-18.5 1.7-27.7.1-6.8.8-13.7.3-20.4-2.9 1.3-1.7-2.1-2.6-3.9-2.9 1-4.1-1.6-6.7-1.7-2.5-.1 0 2.7.9 3.1l-43.1-1.3-4.3-.1c-1.4 0-2.3.8-3.3.7-1.1 0-1.7-1.1-2.7-1.2-6.3-.5-12.8-.2-19.1-.3l-1.9 31.5-1.2 25c2.4 0 37.1.8 37 1.7 0 1-.4 9.6-.1 9.6Z"/>
		<path class="henry" d="M279 433.1c.9 0 1.6 1.1 2.7 1.2 1.1 0 2.2-.7 3.3-.7l4.3.1 43.1 1.3c-.8-.4-3.3-3.3-.9-3.1 2.6.1 3.8 2.7 6.7 1.7.6-14.7.3-29.8 2.1-44.4-2.5-.6-.9-7.5-.3-9.9l-.3-7.6c-27.5-.7-54.9-1.4-82.4-1.9-.3 6.1-.6 12.1-.7 18.2h.8l-.3 4.1v.7a1812.1 1812.1 0 0 0-1.1 37c0 3.5 0 3.1 3.9 3.2 6.3 0 12.8-.2 19.1.3Z"/>
		<path class="miller" d="M530.6 411.3c-1 .2-1.5 1.7-2.7 1.7-1.9 0-3.3-1.6-5-1.6l-18.6-.6c.3-2.7 2.3-13.4.7-15-1.5-1.6-11.2-.6-13.7-.8-6.3-.8-12.9-.5-19.3-.7-2.1 1.3-1.4 7.9-1.5 10.6-.4 5.7-1.6 4.3-7.3 4.5-3.2.1-2.2 18.7-2.3 22.2 1.7.5 7.1.9 8.5 2.4 2.1 2.2-1.6 6.2 2.1 6.6 2.1.2 3-.4 3 1.8 0 1.3-.9 4.1.6 4.3.2 0 2.3 5.9 2.3 6.4 0 1.6 2.2-.1 2.2 2.4 0 1.1-.7 4.1.6 4.3 3 .4.7 1 2.4 2.4l1.8.2c1.5.2.1 1.2 1 1.9 4.8 3.5 12.4 2.8 19.6 3.1l32.3.7c-.5-8.3.4-17.1.7-25.4 0-2-2.6-.2-2.5-1.5l.2-6 .4-15.7v-8c-1.6 0-3.7-.5-5.3-.1Z"/>
		<path class="camden" d="m484.3 462.2-1.8-.2c-1.7-1.5.6-2.1-2.4-2.4-1.3-.2-.6-3.2-.6-4.3 0-2.5-2.2-.8-2.2-2.4s-2.2-6.3-2.3-6.4c-1.5-.2-.7-3-.6-4.3 0-2.2-.9-1.6-3-1.8-3.7-.4 0-4.3-2.1-6.6-1.4-1.5-6.7-1.9-8.5-2.4-3.9-1.2-5.9 0-8.6 2.3-.8.7.1 1.9-.9 2.6-1.1.7-4.6 0-6-.1a74 74 0 0 0-23-.1c.7-1.2 3.4-2.4 3.8-3.2 1.2-3.1-2.2-4.2-4.3-2.3-1.8 1.6-3.7 8.4-6.8 7.1-5.1-2 5-6.7 1.1-7.1-2.1-.2-1.6-2.7-2.5-3.8-.8-.9-2.4-1.5-3.5-2.4-1.5-1.4-3.8-1.5-5.8-1.3.1 4.2-.2 8.4-.3 12.7-.1 3.2 2.1 1.4 3.3 4 .9 1.7-.4 7-.5 8.9l-.5 11.3-1 29 32 .8c8.6-1.6 18.6.2 27.3.4 3 0 8.6-1.6 8.8 2.4a17 17 0 0 0 4.3 9.3c.6.6 5.6 4.5 5.3 4.6 1.6-.4 7.3-3.7 8.2-4.9 2.2-3.1 4.9 0 7.4-1.6.7-.5-.3-1.5.7-2 .7-.3 1.1-.2 1.7-.7 1.2-1 1.3-2.2 3.4-1.9.2-9.4.9-19 .5-28.4-7.1-.3-14.7.4-19.6-3.1-.9-.6.5-1.7-1-1.9Z"/>
		<path class="maries" d="M535.3 441c0 1.2 2.6-.6 2.5 1.5-.3 8.3-1.2 17.1-.7 25.4l23.3.9c1.5 0 8.1.9 8.5-.4.6-1.8 1-4.5 3.3-4.7 1.1 0 1.8 1 2.7.7.8-.2.8-1.2 1.5-1.3 1.3-.3 2.5-2 3.6-2l38.4.6.2-18.8c-4 .6-2.1-7.9-2-10.4l.2-13.3c-27.3-.3-53.4.5-81 .2l-.4 15.7-.2 6Z"/>
		<path class="dallas" d="M388 488.7c-2 1.5-.8 15.4-.9 18.3 0 2.8-.7 6.2-.1 8.9.3 1.3-.7 3.1.9 3.3.2 0 2.4 0 2.3.5l-.6 17.2c-.4 12.6.4 26.1-1.4 38.6l16.4.7c.6-4 .6-8.2.9-12.3.2-3.7 6.9-1.9 10-1.9l22.4.2.7-39.1c0-3.4-2.1-2.5-2-4.3l.2-10.3c.1-6.2.2-12.4.5-18.6l-32-.8c-3.4 0-14.8-2.3-17.3-.4Z"/>
		<path class="morgan" d="M410.1 424.5c1 .9 2.7 1.5 3.5 2.4 1 1.1.5 3.5 2.5 3.8 3.9.5-6.2 5.1-1.1 7.1 3.1 1.2 5.1-5.5 6.8-7.1 2.1-1.9 5.5-.8 4.3 2.3-.3.9-3.1 2.1-3.8 3.2a74 74 0 0 1 23 .1c1.4.2 4.9.8 6 .1 1.1-.6.1-1.9.9-2.6 2.7-2.3 4.7-3.5 8.6-2.3.1-3.6-.9-22.1 2.3-22.2 5.7-.2 7 1.2 7.3-4.5.2-2.7-.6-9.3 1.5-10.6l-25.4-23.6c-2.1-1.9-7-4.8-7-7.9l.1-14.4c-11.1-.2-21.9-.7-33-1.7-1.1 9.5-.9 19.4-1.2 29-.3 15.9-.8 31.7-1.2 47.6 2-.2 4.3 0 5.8 1.3Z"/>
		<path class="bollinger" d="M840 593.7h-10.7c.2 13.5.1 26.9 0 40.3l11.3-.2c5.8 0 4.5 1.2 4.5 6.8h14.6c2.4 0 2.7.6 2.9-1.9.2-1.9 3.8 0 4.9-1 1.1-1-.5-11.8.7-11.8h13.4c0-11.7 0-21.6.8-33.2-3.1-1.2-.9-23.2-.9-27.3 0-7.8.8-15.4.6-23.4l-42.2.3c.7 17.1-.5 34 0 51.2Z"/>
		<path class="cole" d="M504.9 395.7c1.6 1.6-.4 12.3-.7 15l18.6.6c1.7 0 3.1 1.7 5 1.6 1.2 0 1.7-1.5 2.7-1.7 1.6-.4 3.7 0 5.3.1 0-1.3-.3-4.2.5-5.3 1.6-2.2 1.7-.8 3.5-1.2 2.5-.6 5.6-.1 6.9-3 1-2.1-.7-6.8-3.1-7.5-2.9-.9-2.5-4.3-4.1-6.1 3.7-1.5 7.6 2.1 11.6 1 3.9-1.1 9.2-2.1 11.1-6.2 2.1-4.5-3.3-8.4-.8-12 2.1-3 8.8-3 10.2-6.7-4.5.8-7.1 3.7-11 5.4a23.7 23.7 0 0 1-12.4.6c-3.3-.7-7.2-2.5-9.9-4.4-3.4-2.5-3.2-5.4-5.5-8.5-2-2.4-5.3-1.7-7.9-3-3.5-1.7-4.5-2.6-9-2.9-4.1-.3-5.1-2.4-3.5-5.9 1.8-4-2.8-5.3-6.2-6.1-5 19.1-10.2 36.3-15 55.3 2.5.1 12.1-.8 13.7.8Z"/>
		<path class="benton" d="M406.8 448.8c0-1.9 1.3-7.1.5-8.9-1.3-2.6-3.5-.8-3.3-4 .1-4.2.5-8.4.3-12.7.5-15.9.9-31.7 1.2-47.6l-19.6-.8-7.4-.2c-5.8-.1-.1 2.8-3.1 5.5-2 1.8-13.7-.3-16.3-.3l-19.1-.5c-.6 2.4-2.2 9.3.3 9.9-1.7 14.6-1.5 29.7-2.1 44.4.9 1.9-.3 5.2 2.6 3.9.4 6.7-.2 13.7-.3 20.4l65.8 2.1.5-11.3Z"/>
		<path class="pettis" d="M375.4 380.1c3-2.7-2.7-5.6 3.1-5.5 2.5 0 4.9 0 7.4.2l19.6.8c.4-9.5 0-19.5 1.2-29-.4-13.9.8-27.9 1.3-41.7-21.7-2.3-44.5-1.4-66.3-1.9l-.3 2.3c-.6 21.8-.5 45.3-1.6 66.5l.3 7.6 19.1.5c2.6 0 14.3 2.1 16.3.3Z"/>
		<path class="saline" d="m411.8 293.9 13.6-11.9c1.7-2.1 6.6-6.3.9-6.3s-.7-5.3.4-7c2.1-3.4 1.9-5.8 5.1-8.6 2.2-1.9 5.7-3.8 5.3-7.2-.8-3.2-4.1-.6-6.5-.6-4.3 0-2.3-2.1-4.2-4.8-1.2-1.8-3.4-2.8-4.6-4.5-1-1.4.4-3.9-1.1-5.4-3-3.1-10.7-.3-14.5-3.3-3.4-2.6-2.6-10.6-8-10.1-5.3 1.9-4.8-4.3-8.5-4.4-5-.1-1.9 5.2-4.2 8.5-1.2 1.9-3 6.5-5.8 5.1-2.8-1.4-2.2-.7-4.6.9-2 1.3-3 3.3-5.7 3.4-1.3 0-4.5.5-5.2 1.7-1.5 2.7 3.7 5.1.9 8.9-1.9 2.6-6 3.7-9 3.5-1.7-.1-2.1-1.1-2.1-2.4 0-3.8 2.5-1.9-1-4.1-.8-.5-1.8-.3-2.7-.2-1.7 0-1.1-1.8-2.4-2.3-1.6-.7-2.3-1.8-4.2-.9-2.5 20-1.5 41.1-2.1 61.2 21.8.5 44.6-.4 66.3 1.9 0-5.3-.2-7.5 3.8-11Z"/>
		<path class="carroll" d="M348 242.6c1.2.6.6 2.4 2.4 2.3.8 0 1.9-.2 2.7.2 3.6 2.2 1.1.3 1 4.1 0 1.4.4 2.3 2.1 2.4 3 .3 7.1-.9 9-3.5 2.8-3.8-2.4-6.2-.9-8.9.7-1.2 3.9-1.6 5.2-1.7 2.7-.1 3.7-2.1 5.7-3.4 2.4-1.6 1.8-2.3 4.6-.9 2.8 1.5 4.6-3.2 5.8-5.1 2.2-3.3-.9-8.7 4.2-8.5 3.7 0 3.2 6.3 8.5 4.4 0-1.3-.2-2.6-.4-3.8v.5c.4-3.4-2.5-3.2-5-3.3-2.5 0-3.1-2.5-6.1-2.7-1.1 0-2.4.8-2.9.8-.6 0 0-3.2-2-.4-1.4-1.1-.2-3.1.2-4.7.8-2.9-2.5-2.9-3-.2-.2-.2-6.5-1.1-4-1.7 2.2-.5-.2-1.5 0-2.2.3-.9-1.3-1.2-.1-1.8.3-.2 1.6-1.3 1.5-1.7-.3-1.6-2.5-4-3.3-5.5-1.9-3.6 1.7 0 4.1-1.5-3-1.3-1.4-10.1-3.3-13.4-11.1 1.9-23.8.4-35.1.5l-36.4.4c0 4.9.2 9.9 0 14.8l-.3 57.3c5.5 1.5 8.2-3.6 12.9-4.5 1.7-.4 1.5-1.8 3.5-2.4 2.4-.8 3.6.2 6.1.6 4.7.7 10.7 6.8 16 3.7 4.1-2.4-2.4-9.8 3.3-11.3 1.9-.9 2.6.2 4.2.9Z"/>
		<path class="hickory" d="m340.8 504.6 20.4 1L387 507c.1-2.9-1-16.8.9-18.3 2.5-1.9 13.9.3 17.3.4l1-29-65.8-2.1c.1 9.2-1.1 18.5-1.7 27.7-.1 2.1-8.6-1.4-8.6 1.1l-.4 15.4c-.6 3.7 8.6 2.4 11.1 2.5Z"/>
		<path class="webster" d="M463.6 604.5c.1-3.8-1.5-.6-2.3-2.8-1.8-5.1.4-14.8.6-20.2l.5-18.6c-8-.3-16.5-1.3-24.5-.7l-22.4-.2c-3.1 0-9.7-1.8-10 1.9-.3 4.1-.3 8.2-.9 12.3l-.5 16.3-.3 7.9c0 1.4 2.6 0 2.5 1.2l-1 31.4c4.9.6 10 .4 15 .6 2.9 0 11.6-1.7 10.4 2.9l31.8.5.6-20.6.4-11.8Z"/>
		<path class="polk" d="m389.7 536.8.6-17.2c0-.6-2.2-.5-2.3-.5-1.6-.2-.6-1.9-.9-3.3-.6-2.7 0-6.1.1-8.9l-25.8-1.4-20.4-1c-2.5-.1-11.7 1.2-11.1-2.5l-8.1-.3-.3 13c0 2.3.4 1.8 2.8 2 1.1.1.4 4.3.3 5.2l-.9 24.7-.6 26.8 65.4 1.9c1.8-12.5 1-26 1.4-38.6Z"/>
		<path class="greene" d="m403.9 600.3.3-7.9.5-16.3-16.4-.7-65.4-1.9-.6 25.6 2.9-.3c-.3 10.8-1.3 21.9-.8 32.7l35.8.5c14.8.3 30.4 2.1 45.1.8l1-31.4c0-1.3-2.6.3-2.5-1.2Z"/>
		<path class="caldwell" d="M302.3 152.9c-21.9 1.5-44.4-.3-66.4-.5l-.3 7.9c-.1 12.6-1.1 25.5-.2 38.1 22.3 1.1 44.9 0 67.1 0v-14.8c.6-10.1 0-20.5-.3-30.7Z"/>
		<path class="cooper" d="M473.6 298.1c-3.3-.6-6.1-1.1-9.6-1.1-5.6 0-11.2-.2-16.9 0-2.6.1-6.9 0-9.2-1-2-.8-2.3-2.7-3.6-3.7-2.4-1.8-4.5-1.8-6.4-4-1.3-1.5-1.8-4.6-2.5-6.4l-13.6 11.9c-4 3.5-3.7 5.7-3.8 11-.5 13.9-1.7 27.9-1.3 41.7 11.1 1 21.9 1.5 33 1.7h32.5c.6 0 .7-1.8 1-2.5l17.4-38.7c-2.2-3.3-6-7-9.7-8.8-2.5-.4-4.6.3-7.3-.1Z"/>
		<path class="howard" d="m446 232.9-8.9 20c.4 3.4-3.1 5.3-5.3 7.2-3.2 2.8-3 5.2-5.1 8.6-1.1 1.7-6.4 7-.4 7s.7 4.2-.9 6.3c.7 1.9 1.2 4.9 2.5 6.4 1.9 2.2 4.1 2.2 6.4 4 1.3 1 1.6 2.8 3.6 3.7 2.3 1 6.6 1.1 9.2 1 5.7-.3 11.3-.2 16.9 0 3.4 0 6.3.6 9.6 1.1 2.7.5 4.8-.2 7.3.1-1.8-6.7 4.5-16.1 7.1-21.9l12.6-28.5c-13.9-4.5-27.8-9-41.7-13.3-3.5-1.3-11.2-5.5-12.9-1.7Z"/>
		<path class="chariton" d="M372.9 175.8c2.5 2 6.1 5.8 1.1 6.8 1.9 3.2.3 12.1 3.3 13.4-2.4 1.5-5.9-2.1-4.1 1.5.8 1.5 3 3.9 3.3 5.5 0 .4-1.2 1.5-1.5 1.7-1.2.7.4.9.1 1.8-.2.7 2.1 1.7 0 2.2-2.5.6 3.8 1.5 4 1.7.5-2.7 3.7-2.7 3 .2-.4 1.6-1.6 3.5-.2 4.7 2-2.8 1.4.4 2 .4.5 0 1.9-.9 2.9-.8 3 .2 3.6 2.6 6.1 2.7 2.4 0 5.3 0 4.9 3.3v-.5c.3 1.3.4 2.6.4 3.8 5.3-.4 4.6 7.5 8 10.1 3.8 3 11.5.2 14.5 3.3 1.5 1.6.2 4 1.1 5.4 1.2 1.7 3.3 2.7 4.6 4.5 1.9 2.7-.1 4.7 4.2 4.8 2.4 0 5.7-2.6 6.5.6l8.9-20c1.7-3.8 9.4.4 12.9 1.7.5-16.9.9-33.9 1.6-50.8 1.9-4.3 1.2-9.9 2.5-14.7-8.2-2.1-17.3-1.2-25.7-1.4l-61.5-.8c-2.8 2.5-.8 8.1-2.9 9Z"/>
		<path class="moniteau" d="M472.2 348.3h-32.5c0 4.8-.2 9.6-.1 14.4 0 3.1 4.9 5.9 7 7.9l25.4 23.6c6.4.2 12.9 0 19.3.7 4.9-19 10-36.2 15-55.3-3.3-2.1-2.2-5.9-.2-8.5 1.3-1.6 1.5-3.4.2-5.3-.9-1.3-2.3 0-3.5-.7-2.8-1.5-5.1-4.6-7-7-2.7-3.4-2.2-7.7-5.2-11l-17.4 38.7c-.3.7-.5 2.5-1 2.5Z"/>
		<path class="livingston" d="m302.6 183.5 36.4-.4c11.2-.1 24 1.4 35.1-.5 5-1 1.4-4.8-1.1-6.8 2.1-.9 0-6.5 2.9-9-1.9 0-15.1.7-15.2-.4-.5-3.8.1-8.4.2-12.3.3-12.1 1-21.6.7-33.6l-59.3 1.3v31.1c.2 10.1.9 20.6.3 30.7Z"/>
		<path class="wright" d="M461.8 581.4c-.2 5.4-2.4 15.1-.6 20.2.8 2.2 2.4-.9 2.3 2.8l-.4 11.8-.6 20.6 63.8 1.3c1.1-25.7.5-48.2 1.1-74.2l-65.1-1.2-.5 18.6Z"/>
		<path class="linn" d="M360.8 154.2c0 3.9-.7 8.5-.2 12.3.1 1 13.4.4 15.2.4l61.5.8c-1.2-19.8.5-40.2.9-60.1-25.6.1-51.3.5-76.9.8l.3 12.1c.3 12-.4 21.6-.7 33.6Z"/>
		<path class="perry" d="m839.7 534.6.3 7.9 42.2-.3c2.3-.3 6-.5 8.3 0 1.6.3 2.7 1.7 4.2 2 2.5.6 4.4-.1 5.8-1.6 1-1 2.1 1.8 3.1.8.4-.5.5-1.1 1.1-1 1 .2 5.6 4.9 6.5 2.2.7-2 5.3-3.6 3.9 0 2.5 0 2.9-1 4.6-2.2.6-.5 1.9 4.6 2 5.3 3.1-.8 7.8-.5 11.1.1-1.3-4.2 2.2-7.3.7-11.3-1.6-4 2.7-8-1.3-10.8-4.1-2.8-10-2.4-14.3-5.3-1.5-1-3.1-3.1-5-3.4-3-.5-1.5-3.5-2-5.6-1.2-5.6-6.3-6-8.9-10.5-2.8-4.8-7.8-5.6-11.9-8.3-1.5-.9-2.6-3.1-4.3-3.7-4.2-1.6-1.4 0-3.6 1.4-4.3 2.5-6.1 2.2-10.6 2.4a171 171 0 0 0-26.5 36.6l-5.3 5.2Z"/>
		<path class="st_louis_city" d="M834.9 333.3c-1.7 2.9-4.1 3.4-6.2 5.6l-8.2 9.1c-4.3 4.7-3.4 8.3-5.1 14.2-2.3 7.7 5.1 8.1 8.3 13.9 3.8-8.9 14.3-11.5 11.4-22.8-1.4-5.6-4.8-8.6-.2-13.8 2.5-2.8 8.4-7.6 9.6-11.1-3.9.6-7.6 1.3-9.6 4.9Z"/>
		<path class="mississippi" d="M954.3 655.4c-.7.7-4.2.4-5.2.5.5 3.5-3.3.6-3.5 4.1 0 2.3-4.9-.9-4.8 3.1 0 4.1-4.8.9-5 4.3 0 1.2.4 3.4-1 3.5-1.7 0-2.2-.3-2.3 1.5l.3 4 2.5-.2c-.6 2.2-.2 3 1.8 3.1 1.8 0-.7 3.1 2.1 3.1v2c1.9-.4 6.3 8.2 7.7 9.7 1.5 1.6 4.8 4.9 4.8 6.4 0 3.5 1.3.3 2.9 2.1 1.2 1.3-1 2.8 1.4 2.9.3 2.3 2.1 3.3 3.3 5.7.9 2 1.1 5.2 1.2 8.3 5.9.2 7.1 7.4 12.8 7.6 9.1.3 4.8-8.7 8.6-12.5.8-.8 4.6-5.9 4.3-6.3-1.3-1.9-1.3-3.7-2.3-5.4-1.3-2.4-2.7-1.8-2.2-5a16 16 0 0 1 3.3-6.2c1.3-.7 12 .7 7.1-5.4-1.2-1.5-4.8-.8-6.2-2.8-1.3-1.9-1.2-5.3 1-6.5 5.2-2.8 13.3-23.9 3.5-25-2.2 1.1-6.6 2.6-8.8.5-1.6-1.5-.2-4.4-1.3-6.3-1.5-2.7-5-3.1-6.6-6-1-1.7-.8-4.7-2.7-5.9-2.3-1.6-5.2-1.2-6.5 1.4-1.6 3.3.5 4.3 2.5 6.3 1.1 1.1 6.1 3.9 3.9 6.1-2.4 2.4-4.5 2.1-6.7-.3-5.2 0-5 .9-9.4 3.4-1.4.8.4 3.4-.5 4.2Z"/>
		<path class="ste_genevieve" d="M817.6 454.5c-4.4-.8-3.8-1.7-7.5 1.2l-9.5 7.2 13.4 10.5-19.5 17.9c-2.4 2.2 9.2 10.9 11.2 12.7l24 22.7c3.1 3 3.2 1.3 6.6-1.7 3.5-3 5.6 1.6 8.5 4.4a171.9 171.9 0 0 1 26.5-36.6c-2.8-2-9.2-6.1-4.6-10.1 3.5-3.1 1.8-5.1-1.9-4.8-4.3.3-4.9-1.9-7.7-4.3-5.6-4.8-11-6.1-15.4-12.1-2.4-3.3-6.4-3-9.6-5-3-1.9-5.4-5.3-7.7-7.9 0 1-5.9 6.2-7 6.1Z"/>
		<path class="jefferson" d="M810.2 395.2c.4-1.4 2.4-2.7 1.7-4.3-1.7-3.8-7.4 2.3-8.5-.6-.3-.8-2.3-.3-3.1-2.6-1.3-3.8 1.1-1.1 1-3.5-.1-3.7-6-3-9.5-2.9l-11 .1c-3.7 0-6.8-.6-7 .3-.4 1.6-.9 3.9-2.3 4.9-2.6 1.8-5-3.2-7.6-.2-1.3 1.5 1.6 4-1.2 5.1-.7.3-2 .2-3 .3 1.9-4.6-6.7-4.8-7.2-2.4l-.2-1.2c-.2 15.5-3.8 30.3-6.4 45.6 4.1 4.9 8.9 10.1 12.3 15.1 1.6 2.2 1.6 6.3 4.9 4.8 3.3-1.6-.4 3.3 4.1 2.9 6.4-2.2 2.8 4 3.1 6.4.1 1.2 0 4.3.2 5 .2.7-2.4 1.3.4 2 4.6 1.1 8.9-.8 13.4-2.2 5.4-1.7 11-2.7 16.2-5l9.5-7.2c3.7-2.8 3.2-1.9 7.5-1.2 1.1.2 6.9-5.1 7-6.1-1.8-1.8-3.1-4.1-4.6-6.2-1.7-2.4-4.5-2.2-6.6-3.9-4.2-3.3-5.8-8.9-6.2-13.9-.5-6.3-1.5-18.1 4.2-22.5-.7-2-1.9-4.6-1.3-6.7Z"/>
		<path class="cape_girardeau" d="M921.7 547.7c-.1-.7-1.4-5.8-2-5.3-1.7 1.2-2 2.1-4.6 2.2 1.4-3.6-3.2-1.9-3.9 0-1 2.7-5.5-2-6.5-2.2-.7-.1-.7.5-1.1 1-1 1-2.1-1.8-3.1-.8a5.7 5.7 0 0 1-5.8 1.6c-1.4-.3-2.6-1.7-4.2-2-2.3-.5-6-.3-8.3 0 .2 8-.6 15.5-.6 23.4 0 4-2.2 26.1.9 27.3-.8 11.6-.9 21.4-.8 33.2l13.7.2c3.9.9.9-2.8 4.2-3 1.5 0 3 .5 3.1-1.2.1-2.3 1.6 0 2.3-1.2.7-1.2-1-3.1.9-3.3 2.3-.3 2.3 0 2.3-2.3s5.5 1.3 5.6-3.2c0 0 5-3 4.4-2.9 1.4 0 3.1 0 4.5-.2.9-.2-.9-1.5 1.6-1.5 3.6 0 11.3 0 13.7-3.3h-.3c-5.5-1.5-4.8-8.6-2.2-12.4 1.4-2 4.6-2.6 6.9-2.7 3.6-.2 3.7-4 4-6.7.9-7.6-2.3-9.4-6.4-15.4a35 35 0 0 1-7.2-19c-3.3-.7-8.1-.9-11.1-.1Z"/>
		<path class="scott" d="M924.3 607.3c-2.4 0-.7 1.3-1.6 1.5-1.4.3-3.1.2-4.5.2.6 0-4.4 3-4.4 2.9 0 4.5-5.6.9-5.6 3.2s0 1.9-2.3 2.3c-1.9.3-.1 2.1-.9 3.3-.7 1.3-2.2-1.1-2.3 1.2-.1 1.7-1.6 1.1-3.1 1.2-3.3.2-.2 3.9-4.2 3-.6 3.4-3 11.6 1 14.1 1.6 1 .2 2.7.7 3.7 1 1.9 3.1 2.9 4.1 4.8 1.5 2.6 1.4 4.1 2.2 6.7.6 1.9 1.7 2.4 2.5 4.3 2.1 4.6 0 9.7.3 14.3 4.6.4 9.3-.3 13.9-.2 1.5 0 0-1.5 1-1.5h11.3c.2-1.7.6-1.4 2.3-1.5 1.4 0 .9-2.3 1-3.5.2-3.5 5.1-.2 5-4.3 0-4 4.7-.8 4.8-3.1.1-3.5 4-.6 3.5-4.1 1-.1 4.5.1 5.2-.5.9-.9-.9-3.4.5-4.2 4.3-2.5 4.2-3.3 9.4-3.4-2.7-2.2-11.8-4.9-11.2-9.2.5-3.4 2-3.9.2-7.4-1.4-2.6-3.9-3.4-5.7-5.5-1.8-2.1-1.6-5.1-2.7-7.2-1.4-2.9-2.7-4.1-3.6-7.5-1-3.8 2.7-7.3-3.2-7-2.5 3.4-10.2 3.2-13.7 3.3Z"/>
		<path class="new_madrid" d="M955.9 705.6c-2.4-.1-.3-1.6-1.4-2.9-1.6-1.8-2.9 1.3-2.9-2.1s-3.3-4.8-4.8-6.4c-1.4-1.5-5.8-10-7.7-9.7v-2c-2.8 0-.3-3.1-2.1-3.1-1.9 0-2.4-.9-1.8-3.1l-2.5.2-.3-4h-11.3c-1 0 .5 1.5-1 1.5-4.6-.1-9.3.7-13.9.2-2.5.7-.8 14.1-.8 17.1l-.2 19.5c0 2.1 1 5.3-1.6 5.3l-12.2-.2-23.3-.3c-1.1 4 .8 8 1.1 12 .2 2.7-.6 7.3-1.1 10.1-.6 3.6.7 7.9-.4 11.3-.8 2.4-3 9.6 0 9.4 6.6-.4 13.6.4 20.3.4s8.6 1.4 10.5-.2c1.1-.9.1-6.2 1.6-7 3.4-1.9 6 .4 7.8 2.5 3.2 3.6 6.7 1.1 10.2.7 3.7-.4 4.9 2.3 6.6 4.9 1.4 2.2 5.3 3.9 7.4 5 5.7-4.5-2.2-11-2.9-15.2-.6-4 8-8.2 1.2-11.5-2.2-1.7-3.7-2-4.2-4.7-.6-3 1.2-5.9 4.4-5.5 3.6.5 15.2 4.4 8.9 10.2h0l.3-.3v.3h-.3 0l-.9 1.5.7-.7.6-1.1-.6 1.1-.7.7c-.8 1.5-1.7 3.4-1.9 4.9.2 1.3 1.1 2.4 3 2.8h1.5c1-.2 1.9-.9 2.7-1.7 1.7-1.9 2.8-5 4.2-6.6l.1-.2.3-.6c1.9-4.5 5.5-23.9 12-18.5a22 22 0 0 0-1.2-8.3c-1.1-2.5-2.9-3.5-3.3-5.7Z"/>
		<path class="dunklin" d="M867.7 758.2c-2.9.2-.7-7 0-9.4 1.1-3.4-.2-7.7.4-11.3.5-2.8 1.4-7.4 1.1-10.1-.3-4-2.2-8-1.1-12h-29c0-.2-.1-.1-.2 0-.5 1.1-1.9 2.1-1.8 2.8.2 2.7-3 .5-3.3 1.8-.9 3 .2 7.5-.8 10.8-3.2-3.5-4.3 6.2-4.4 8.2h11.1c.5 2.4 1.5 7.7 4 7.3 1.1 2.5-.6 3.9-.3 6.5.3 2.5 1.4 1.7 2.5 2.4 3.8 2.1 10.3 1.9 8.1 8.3-.5 1.5-1.3 2.8-1.7 4.3-.6 2.3.5 2.3.6 3.8 0 .8.2 5.4-.7 6.4-1.9 2.1-4.8.9-6.7 2.4-2.9 2.3-2.1 6.6-4 8.8-1.7 2.1-5.9 2.8-8 3.7-2.8 1.2-5.2 3-6.6 6.2-1 2.2 1 4.1-3.1 5.6-.9.3-5.8 1-5.5 2.7.3 2.2-2.1 1.7-3.2 3.2-1.4 1.9-1.8 4.3-3.3 6.2-1 1.3-1.4 3.1-2.1 4.4-1.3 2.5-3.2 3.7-4.2 7.4l62.4-1.3c-1-22.9-.2-46.2-.2-69.1Z"/>
		<path class="madison" d="M781.6 542.4c0 .9-1.7 0-1.7 1.7l-.1 16.6c0 11-.3 22 0 33h60.3c-.4-17.3.8-34.2 0-51.3l-.3-7.9-57.6.2-.5 7.7Z"/>
		<path class="pemiscot" d="M924.6 759.4c-1.7-2.5-2.9-5.3-6.6-4.9-3.5.4-7 2.9-10.2-.7-1.9-2.1-4.4-4.4-7.8-2.5-1.5.8-.5 6.1-1.6 7-1.9 1.6-8.2.2-10.5.2-6.7 0-13.7-.8-20.3-.4 0 23-.8 46.2.2 69.1l34.8-.3s0 0 0 0h0l.1-.2 1-1.3-1 1.3h0c1.6-2.2 5.3-2.8 5.7-5.7.4-2.6.4-5.2.6-7.8.7-6.6 8.2-4.8 11.6-8 6-5.7-3.7-11.5-7.3-14.8-1.9-1.8-11.2-9.5-3.5-9.2 6 .2 10 2.9 16 .6 7-2.6 3.8-4.4-1.3-6.2-3.3-1.2-10.4-6.3-5.8-10.5 3.2-2.9 9.4 2.2 12.9-.7-2.1-1.2-5.9-2.8-7.4-5Z"/>
		<path class="st_louis" d="M831.6 323.2c-2.1-.9-6.3-3.3-8-4.9-1.8-1.7-2.3-4.3-4.7-5.4-7.1-3.4-7 5.3-9.9 9.1-3.5 4.7-11-1.5-15.1 2.8-2.2 2.3-2.6 6.1-4 8.9-1.4 2.8-3.5 4.1-5.5 6.7-3.2 4.3-3.1 9.8-10.8 9-4.5-.5-8-3.5-12.4.6-1.5 1.5-2 3.5-3.8 5a16.4 16.4 0 0 1-4.8 2.7l-.3 30.5.2 1.2c.5-2.4 9.1-2.2 7.2 2.4 1 0 2.3 0 3-.3 2.7-1.1-.2-3.6 1.2-5.1 2.6-3 5 2 7.6.2 1.4-1 1.9-3.3 2.3-4.9.2-1 5.8-.3 7-.3l11-.1c3.5 0 9.4-.8 9.5 2.9 0 2.4-2.4-.4-1 3.5.8 2.3 2.8 1.8 3.1 2.6 1.1 2.9 6.8-3.2 8.5.6.7 1.5-1.3 2.9-1.7 4.3-.6 2.1.6 4.7 1.3 6.7 8.4-6.9 7.5-16.8 12.3-25.7-3.2-5.8-10.5-6.2-8.3-13.9 1.7-5.9.9-9.5 5.1-14.2l8.2-9.1c2.1-2.2 4.5-2.7 6.2-5.6 2.1-3.6 5.7-4.3 9.6-4.9-.7-7-8.6-3.5-12.9-5.3Z"/>
		<path class="st_charles" d="m759.5 307.8-4.1-.5c.5.6 1.2 2 1.7 2.4-6.1-1.2-.9-4.5-6.5-3.8-4.7.5-11.7 1.7-8.4 8.3-4.2.3-7.5-1.3-11.4-1.7-2-.2-4.2.9-6.1.9s-3.2-1.8-5.4-1.8c.2 1.3.2 2.6.1 3.9 1.1 19.1-.5 38.9-1 57.9h0c9.3 4.2 13.9-4.2 21.8-6.3 3.4-.9 6.4 2.9 7.6-1.9.7-2.7 3-5.8 5.1-7.4 1.6-.5 3.4-1.5 4.8-2.7 1.8-1.6 2.2-3.6 3.8-5 4.4-4.2 7.9-1.1 12.4-.6 7.7.8 7.7-4.7 10.8-9 2-2.7 4.1-3.9 5.5-6.7 1.4-2.7 1.8-6.5 4-8.9 4.1-4.4 11.6 1.8 15.1-2.8 2.8-3.8 2.8-12.6 9.9-9.1 2.4 1.2 2.9 3.7 4.7 5.4 1.7 1.6 5.8 4 8 4.9 4.3 1.7 12.2-1.8 12.9 5.3 5.6-8.6-8.9-13.4-14.1-16.7-3.5-2.3-6.1-5.3-10.4-5.3s-9.8-.9-14.2-3.9c-3.6-2.5-8.6-4.1-12.9-2.1-4.3 2-6.3 7.9-9.6 11.4-3.5 3.6-8.7 4.9-13.1 2.3-4.2-2.4-4.5-6.3-6.8-10.1-2.6.5-6.8.9-3.8 3.8Z"/>
		<path class="ralls" d="M610.8 170.1c-4.8 0-4.4-.4-4.6 4.8 0 9.4 1.1 17.3.6 27.4-.4 9.6-1.5 19.8-.8 29.4 2 4.7 13.7 2.7 18.2 2.8l23.3.7-2.1-16.6c-1-7.5-1.7-7.1 4.3-11.1l33.7-22.1c-2.6-3.1-6.5-3.8-8.8-7.3-2.1-3.3-5.9-5.7-8.9-8.2l-34.7.1h-20.4Z"/>
		<path class="pike" d="M645.5 218.6c.8 5.5 1.4 11.1 2.1 16.6 1.5 10.3 2.7 20.6 4 30.9l22.6.8c1.7 0 9.7 1.2 10.7 0 1.5-1.7.6-10.4.8-12.8.3-4.2 11-2 14.4-2 17.8 0 35.8.8 53.6.2-.4-3.4-3.2-5.5-4.9-8-2.5-3.6-4.6-6.9-8.4-9.6-7.3-5.1-13.9-10.3-21.2-15.3-3.8-2.6-8.5-4-11.6-7.4a19.8 19.8 0 0 1-5-10c-1.4-5.3-6.5-3.7-10.2-6.5-3.9-2.8-5.4-7-8.8-10.1h0a6474 6474 0 0 0-33.7 22.1c-6 3.9-5.3 3.6-4.3 11.1Z"/>
		<path class="lincoln" d="M700.1 252.2c-3.4 0-14.1-2.2-14.4 2-.1 2.4.8 11.1-.8 12.8-1 1.1-8.9 0-10.7 0 .4 8.7-.4 17.6-.6 26.2 1.8.2 10.4.1 10.4 1 0 3.4 0 6.9-.3 10.3l11.4.6c2.9.2-.4 8.2 1.1 9.8 1.1 1.1 9.1.2 10.7.2l12.3.3-.1-3.9c2.2 0 3.7 1.8 5.4 1.8s4.1-1.1 6.1-.9c4 .5 7.2 2 11.4 1.7-3.3-6.6 3.7-7.8 8.4-8.3 5.7-.7.4 2.6 6.5 3.8-.5-.4-1.2-1.9-1.7-2.4l4.1.5c-3-2.9 1.2-3.4 3.8-3.8-5-5.5-6.8-19.6-4.9-26.6 1.4-5.1-2.8-7.1-2.9-12.1 0-4.7-1.1-8.4-1.9-12.9-17.8.7-35.8-.1-53.6-.2Z"/>
		<path class="ripley" d="M776 721.8c-.9-2.4-2.5 1.6-2.5-3.4v-11.5c0-2.4-4.6.3-4.7-1.8l-.2-10-.2-10.9c0-2.4-3.1-1.4-5.1-1.5-22.5-.1-44.9-1.3-67.4-1.5l-1.1 30.6c-.2 8.8-2.2 19.2-.8 27.9 27.3.7 54.8 0 82.2-.4-1.1-5.1 1.6-12.7-.2-17.5Z"/>
		<path class="marion" d="M587.6 123.1c.4 17.1.3 34.4-.3 51.4l19 .4c.2-5.2-.3-4.7 4.6-4.8h20.4l34.7-.1c-3.9-4-7.8-4.7-7.6-10.9.2-5.2-.1-9.4-4.7-12.2-3.2-2-8-6.6-7.5-10.8.5-4.1 6.6-7.9 1.4-12.3-19.9.9-40.1-.4-60-.5Z"/>
		<path class="clark" d="M644.1 45.1c-.9-1.2-2.2 0-2.9-.5-1.2-.9-.3-2.4-2.6-2.9-4.4-1-3.3-1.2-3.7-4.6-.2-1.7-2-1.3-.9-3.1 1.4-2.3-2-2.2-3.5-2.6-1.8-.4-8.7-6.5-9.1-8.5-1.1-6-4.4-5.2-9.6-7.4-1.9-.8.6-3.8-1.2-5.5-1.6-1.5-3.7-2.1-5.7-3-1.9-.8-.7-1.7-3.1-1.7h-10.3l-18.5.2c.6 18-.7 36.4-1.2 54.4.2 2.7.1 5.4.2 8 22.6.4 45.1.7 67.7 1.3.1-7.9 3-15 7-22.1-.9-.7-2-1.2-2.7-2.2Z"/>
		<path class="lewis" d="M571.8 75.3c2.8 1.5.3 18.1.1 21.6l-.9 25.9 16.6.3c19.9.2 40.1 1.4 60 .5a71.5 71.5 0 0 1-7.8-54.3c-22.6-.6-45.1-1-67.7-1.3l-.3 7.3Z"/>
		<path class="butler" d="M833.1 730.7c1.1-3.2 0-7.8.8-10.8.4-1.2 3.5.9 3.3-1.8 0-.7 1.3-1.7 1.8-2.8h.2a3.5 3.5 0 0 0 0-4.9c2.9 0 .2-2.2.4-4.8.1-1.6-1.7-3.7-1.1-5.2 1.4-3-8.5-10.1-7.5-12 2.1-3.8-1.1-5.2-2.2-8.2-.9-2.6.9-2.1-1.3-4.8-1-1.2-3.6-2.6-4-4-.4-1.5 3.6-3.8-.3-4.2 1.4-1.4.5-2.7-.2-4.2-20.7 0-41.4-.4-62.1-.4.2 2 .1 4.1.2 6.1 0 2.5 2 1.2 2 2.5v11.5c2 .1 5.1-.9 5.1 1.5l.2 10.9.2 10c0 2 4.7-.6 4.7 1.8v11.5c0 5 1.6 1 2.5 3.4 1.8 4.8-.9 12.5.2 17.5 17.5-.1 34.9-.1 52.4-.4h.1c.2-2 1.2-11.6 4.4-8.2Z"/>
		<path class="mercer" d="M299.7 30.4c0 1.4 1.8-.3 2 .5.2.9 0 2 .1 2.9l.2 33.4h58.9l.4-22.5c.7-12.6-.5-21.1.3-34.1-20.6 0-41.2 0-61.9.3l.2 14.8v4.8Z"/>
		<path class="schuyler" d="M462.3 16.7c-.3 1.1-4.4 1.8-4 3.5.1.5 4.3 1.7 4.9 1.8-4.8.9.8 3.1-.4 5.6-1.1 2.3-2.6.3-3.3 3.6-.2.9-1 2.9-.8 3.7.4 2.5 2.7 2.6 4.5 4.9 1.4 1.8 3.3 6.2-1 3.8-.6 3-.2 6.5.3 9.6 16.6-.3 33.1-.6 49.7-.7-.2-15.1-.4-30.3-.8-45.4-17.7.6-35.3 1.3-53 1.8-2.4 3.6 5.2 3.4 3.9 7.7Z"/>
		<path class="putnam" d="M361.2 44.6c3.5 4.1 15.3 1.5 20.1 1.5H437.4l-.4 7.3 25.5-.2c-.4-3.1-.8-6.6-.3-9.6 4.4 2.4 2.4-2 1-3.8-1.8-2.4-4.2-2.4-4.5-4.9-.1-.8.6-2.8.8-3.7.7-3.2 2.2-1.3 3.3-3.6 1.2-2.5-4.4-4.7.4-5.6-.6-.2-4.7-1.3-4.9-1.8-.4-1.7 3.7-2.4 4-3.5 1.3-4.4-6.3-4.1-3.9-7.7l-96.9 1.6c-.7 13.1.4 21.6-.3 34.1Z"/>
		<path class="knox" d="M512.8 106.9c2.2 1.4.7 8.6.7 11.3-.1 6.2 2.7 4.3 8.6 4.6h48.8l.9-25.9c.1-3.5 2.7-20-.1-21.6l.3-7.3c0-2.7 0-5.4-.2-8-19.7 0-39.3 0-59 .2 0 15.6.2 31.1 0 46.7Z"/>
		<path class="scotland" d="m512.9 60.2 59-.2c.5-18 1.8-36.4 1.2-54.4-20.6.8-41.1 1.5-61.7 1.5.4 15.1.6 30.3.8 45.4l.7 7.7Z"/>
		<path class="atchison" d="M91.1 66.3c0-10.8.3-21.5.5-32.3 0-.7.6-4.7.1-5.2-1.1-1-4.9 1.2-4.9-.9L86.7 10C59.5 9.5 32.2 9 5 8.7c1.3 6 .2 10 7.8 11.3 7.6 1.3.7-7.5 5.9-7.2 2.5.2 3.5 5.2 2.1 6.7-1.1 1.2-6.4 3.6-6 5.8.5 3.6-2.5 3 1.8 6 1.9 1.3 4 5.7 2.7 8l-1-.3c.3 1.5 1.8 2.8 2.8 4.1 1.3 1.6.9 4 2 5.7.9 1.5 2.9 2.7 1.8 4.3-1 1.4-3.5 1.3-4.1 2.6-2.4 5.1 5.8 1.8 7.8 2.6 5.3 2.2 7.4 1.3 7.1 7.8 18.5.7 37.1 0 55.6 0Z"/>
		<path class="nodaway" d="M91.7 28.9c.5.5 0 4.5-.1 5.2l-.5 32.3c4-.5 8.5.2 12.6.3 4.6 0 3.7 4.5 3.5 7.3 0 1.5-1 4.7-.8 6 .2 1.6 1.6 2.5 2 3.9.6 2.5-.7 4.1 1.8 6.1l65.4.8c.6-15.5 1.6-31 1.7-46.5-4 .5.7-14.9-2.4-14.9-3.7 0-2.4-2.6-2.4-6.1V11.2c-28.6-.2-57.2-.8-85.9-1.1l.1 17.9c0 2.1 3.9-.1 4.9.9Z"/>
		<path class="worth" d="M174.9 29.4c3.1 0-1.6 15.4 2.4 14.9l57.2.6c.4-3.7 2.3-14.9-1.6-15.2-1.6-.1-.6-15.2-.5-17.6-19.9-.4-39.8-.7-59.8-.9v12.1c0 3.4-1.3 6 2.4 6.1Z"/>
		<path class="harrison" d="M232.9 29.8c4 .3 2.1 11.5 1.6 15.2v44.3c22.3.6 44.6 1 66.9 1l.5-23.2-.2-33.4c0-.9.1-2-.1-2.9-.2-.8-2 .9-2-.5v-4.8c0-4.9 0-9.9-.2-14.8-22.4.7-44.8 1.2-67.2 1.4 0 2.4-1 17.5.5 17.6Z"/>
		<path class="st_francois" d="M765 534.4c1.6 2.2 13.9.4 17.1.4l57.6-.2 5.3-5.2c-3-2.8-5.1-7.3-8.5-4.4-3.4 3-3.5 4.7-6.6 1.7l-24-22.7c-2-1.9-13.7-10.5-11.2-12.7l19.5-17.9-13.4-10.5c-5.1 2.3-10.8 3.4-16.2 5-4.4 1.4-8.7 3.3-13.4 2.2-2.9-.7-.3-1.3-.4-2-.2-.8 0-3.8-.2-5-.3-2.5 3.3-8.6-3.1-6.4l-1.7 61.6c-.1 2.6-2.2 14.1-.7 16.2Z"/>
		<path class="washington" d="M698.5 474c-.4 14.4 0 29.1-1.3 43.5 22.8.7 45.6.5 68.5.7l1.7-61.6c-4.5.4-.9-4.5-4.1-2.9-3.3 1.6-3.3-2.5-4.9-4.8-3.5-5-8.2-10.2-12.3-15.1-15.5.3-31.5.2-47.6.6 1.1 13 .5 26.5.2 39.5Z"/>
		<path class="warren" d="M672.8 320c0 1.5-3.8-.4-4.6-.4-3.9 0-16.7-2.3-16.8 2.1l-.8 22c2.7-.2 5.1 1.4 7.5 2.6 6-.3 9.6.2 14.6 4 4.6 3.5 6.4 9.6 11.5 11.9 3.5 1.6 7.2 1.4 10.9 1.4s6.7-3 10.4-.4c2.4 1.7 3 4.4 4.9 6.2 2.1 2.1 5.4 2.6 8 3.9.6-19.1 2.1-38.9 1-57.9l-12.3-.3c-1.5 0-9.6.9-10.7-.2-1.6-1.7 1.8-9.7-1.1-9.8l-11.4-.6c.3-3.4.2-6.9.3-10.3 0-.9-8.7-.8-10.4-1-.2 6.1-.2 12.2-.6 18.3-.2 2.8-.1 5.7-.3 8.5Z"/>
		<path class="franklin" d="M705.5 363.3c-3.7-2.6-6.7.4-10.4.4s-7.4.1-10.9-1.4c-5.2-2.3-7-8.4-11.5-11.9-5-3.8-8.6-4.3-14.6-4-.2 16.8 1.3 33.5 0 50.3 2.6.8-.1 33.1-.3 36.7v1c13.5.4 27.2.1 40.8.1 16.2-.4 32.2-.3 47.6-.6 2.6-15.3 6.2-30 6.4-45.6l.3-30.5a15.5 15.5 0 0 0-5.1 7.4c-1.2 4.8-4.2 1-7.6 1.9-7.9 2.2-12.4 10.6-21.8 6.4h0c-2.6-1.4-5.9-1.9-8-4-1.8-1.8-2.5-4.6-4.9-6.2Z"/>
		<path class="holt" d="M121.1 127.9c-1.1-.6-3 .2-4-1l-.1-.2.1.2c.7.4.9-5.3.9-5.1-.1-1.8-.2-3.9-.7-5.6-.6-2.1-3.3-4.5-1.4-6.9 1-1.3.8-1.4.5-2.7-.6-2.1-3-3.7-4.8-2 0-2.8-2.6-3.1-2.7-5.9 0-2.6 1.2-5.8 1.2-8.7-2.5-2.1-1.2-3.7-1.8-6.1-.4-1.5-1.8-2.3-2-3.9-.2-1.3.7-4.5.8-6 .2-2.8 1.1-7.3-3.5-7.3-4.2 0-8.6-.8-12.6-.3-18.5 0-37.1.7-55.6 0 2.6 3.1 5.3 1.8 8.7 2.9 2.4.8 4.6 4 5.5 6.5.8 2.4 0 4.8.9 7 1.3 3.1 5.3 6.1 7.5 8.1 1.5 1.4 4.4 3.9 3.6 6.4-.5 1.8-5.5 3.7-4.5 6.8.2.8 6.3 4.5 7.2 4.6 4 .2 4.8 4.5 7.8 5.7 1.7 2.1 4.5 3 6 4.8 1.8 2.2 3.9 4.8 6.7 5.7 1.4.4 2.9.3 3.8 1.5.7 1 .6 3.5 1.5 4.2 2.5 1.9 4.8-.1 7.5 1.6 2.2 1.4 3.6 5.7 7.1 5.7s5.3-.7 6.5-.3c4.3 1.4 3-3.6 5.7-4.6 2.2-.8 6.1.2 8.6 0-1.2-1.8-2.5-4.2-4.4-5.3Z"/>
		<path class="audrain" d="m517.9 248 17.1.7c2.3 0 12.8-1.2 14.6.7 1.7 1.8-.6 14.5-.7 17-.2 4.7-.8 9.6-.4 14.3l69.7.8c.3-5.1.9-10.3.7-15.4h32.9c-1.3-10.2-2.5-20.5-4-30.8l-23.3-.7c-4.6-.1-16.2 1.9-18.2-2.8l-87.9-1.3c-.4 5.8-.3 11.7-.4 17.5Z"/>
		<path class="montgomery" d="M618.1 281.4c.9 21.1-1 42.9-1.6 64 6.3-.5 9.8 6.1 16.9 3.3 5.4-2.2 10.9-5.3 17.2-5l.8-22c.2-4.4 12.9-2.1 16.8-2.1.9 0 4.6 1.9 4.6.4.1-2.8 0-5.7.3-8.5.4-6.1.4-12.2.6-18.3.2-8.7 1-17.6.6-26.2l-22.6-.8h-32.9c.2 5-.4 10.2-.7 15.2Z"/>
		<path class="monroe" d="M544.6 174.1c-7.9 0-7.4-1-7.8 7.3-.2 3.9-2.1 2.6-5.9 2.6h-10.6c-.7 15.5-1.1 31.1-2 46.5 29.3.3 58.6.7 87.9 1.3-.7-9.6.4-19.8.8-29.4.4-10.2-.6-18-.6-27.4l-19-.4c-13.9 1.4-28.6-.2-42.6-.4Z"/>
		<path class="shelby" d="M522.2 122.7c-.7 20.4-1.5 40.8-1.8 61.3H531c3.8 0 5.7 1.4 5.9-2.6.4-8.3 0-7.4 7.8-7.3 14 .2 28.7 1.7 42.6.4.6-17 .7-34.4.3-51.4l-16.6-.3h-48.8Z"/>
		<path class="jackson" d="M249.8 307.8c.3-13.5 0-27.4 1.2-40.9-1.5-2.4-3.7-5.8-6.4-6.7-4.4-1.6-6 .1-2.3-4.3-3-2.9-4 0-7-.4-2.9-1.8-4.9-5.7-8.8-5.2-4.7.6-5.5 2.5-8.3 6.2-1.3 1.7-4.5 6.6-6.4 6-1.4-.4-3.6-7.9-5.7-4.2.3-.4.8 3.6.7 4-.3 1.6-.9 2.2-1.9 3.6-2.9 4-4.2 3.9-7.9 1.8-4.3-2.5-6.1-2.9-10.5 0-2.9 1.9-5.8 4.2-9.2 4.4l-.6 49.2 72.3 1.1.8-14.7Z"/>
		<path class="barry" d="M329.6 684.8c.1-3.6.8-3.6-3.1-3.9-4.7-.4-3.2-2.3-3.1-6.9l.1-11.3c-10.5 1.1-21.8-.3-32.4-.5l-33.3-.7c-1.5 10.4-1 21.7-1.1 32.2l-1 45.6h.2c23.9.1 47.9 0 71.8.2l1.6-42.7.4-12.1Z"/>
		<path class="jasper" d="M259.1 597.7c-3.9-.5-4.5.2-4.5-3.8l-.1-6.7-78.7-2.5c-2 17.2-.3 36.2-.4 53.6 27.6.3 55.1.8 82.7 1.3l1.1-42Z"/>
		<path class="mcdonald" d="M175.3 691.1c0 16.2-1 32.4 1.6 48.4 26.1-.1 52.6 1 78.7-.2l1-45.6c-27.1-1-54.2-1.9-81.4-2.6Z"/>
		<path class="newton" d="M257.8 661.5c.1-7.3.7-14.6.3-21.9-27.6-.5-55.1-1-82.7-1.3v10.1c1 14.1.1 28.5-.1 42.7l81.4 2.6c.2-10.5-.3-21.8 1.1-32.2Z"/>
		<path class="andrew" d="M175.9 147.1c.7-13.6-.1-27.5-.3-41.1V90.7l-65.4-.8c0 2.9-1.2 6.1-1.2 8.7 0 2.8 2.6 3.2 2.7 5.9 1.8-1.8 4.2-.1 4.8 2 .3 1.3.6 1.4-.5 2.7-2 2.4.7 4.7 1.4 6.9.5 1.7.5 3.8.7 5.6 0-.3-.2 5.5-.9 5.1.9 1.2 2.9.4 4 1 1.9 1.1 3.2 3.5 4.4 5.3 7.3-.6 1.1 5.2 1.3 7.2.6 5 7.5 3 9.4 6.1 13.2 1 26.5.5 39.7.6Z"/>
		<path class="taney" d="m450.2 683.7-21.2-1-59.4-.8-.9 28.6c-.3 9.4-1.8 19.6-.8 29 27.1-.4 54.5-.8 81.6 0h.1c-.1-18.6.3-37.2.6-55.8Z"/>
		<path class="howell" d="M611.6 705.3c0-1.9-.4-18.5 1.7-18.7 1.8-.1 1.1-15 1.1-17.2v-29c-9.2.9-19.5-.5-28.7-.8l-34.2-.9-1.1 46.5h-2.8l-1.7 53.9c21.5-1.1 43.6.1 65.1 0 .9-12.7.2-21.8.6-34Z"/>
		<path class="ozark" d="M450.2 683.7c-.3 18.6-.8 37.2-.6 55.8 32 .6 64.3-1.7 96.3-.2l1.7-54-97.4-1.6Z"/>
		<path class="stone" d="m368.7 710.4.9-28.6c-1.7-.1-5.2.7-5.2-1.4l.1-11.5c0-1.6.6-17.4-.1-17.4l-40.6-.9-.3 12.1-.1 11.3c0 4.5-1.6 6.5 3.1 6.9 3.8.3 3.2.3 3.1 3.9l-.4 12.1c-.4 14.3-1 28.5-1.6 42.7 13.4.3 26.9 0 40.2-.2-1-9.4.5-19.6.8-29Z"/>
		<path class="oregon" d="m694.8 711.9 1.1-30.6-15.4-.6c-1.7 0-.8-8.4-.8-10.2-21.7-.4-43.5-.7-65.2-.9 0 2.2.6 17-1.1 17.2-2.1.1-1.6 16.7-1.7 18.7-.4 12.2.3 21.3-.6 34 27.7 0 55.3.7 83 .4-1.4-8.7.6-19 .8-27.9Z"/>
		<path class="platte" d="M176.4 197c-23.9 0-48.1-.9-72 .5 1.6 2.5 5 2.9 6.4 5.1.9 1.4.6 3.1 1.3 4.3 1.5 2.7 3.6 3.4 6 5 1.2.8 2.7 1.2 3.7 2.2.9.9.6 2.6 1.7 3.4 2.3 1.7 3.6 5.7 6.6 6.8 2 .7 3.6-1.3 4.3 1.3.4 1.6-2.3 3.7-2.4 5.4-.6 7.6 6.5 9.9 10.8 14.4 2.7 2.8.7 3.9 1.4 6.8.7 2.7 2.7 3 4.6 4.2 3.7 2.4 8 5.4 12.5 5.6 3.2.1 3.9-1.4 7 0 2.4 1 3.7 2.9 6.7 2.8h0c.6 0 1.2.1 1.7.5h0l.3-53.6-.6-14.6Z"/>
		<path class="clay" d="M196.9 267.7c3.7 2.2 5 2.2 7.9-1.8 1-1.4 1.7-2 1.9-3.6 0-.4-.5-4.4-.7-4 2.2-3.6 4.3 3.8 5.7 4.2 2 .6 5.1-4.3 6.4-6 2.8-3.7 3.6-5.7 8.3-6.2 4-.5 5.9 3.4 8.8 5.2.7-14.7.3-29.8-.2-44.5l-58.1.5c0 17.9 0 35.7-.3 53.6 3.7-1.9.5 5.9.6 7.1 3.3-.2 6.2-2.5 9.2-4.4 4.4-2.9 6.2-2.5 10.5 0Z"/>
		<path class="barton" d="M255.6 545v-10.5l-79.9-1.4v51.7l78.7 2.5c.3-13.9-.5-28.4 1.2-42.2Z"/>
		<path class="buchanan" d="M176.4 197c0-12.2-.1-24.5-.3-36.7l-.2-13.1c-13.2-.2-26.5.3-39.7-.6 2.5 4.1-2.3 5.1-5.4 4.9-5.4-.3-1.4 6.9 3.1 6.6 1.6 0 3.1-2.6 4.8-1.1 1.3 1.1.6 2.9-.5 4.1-4.4 4.6-7.6-.8-12.1.6-4.8 1.5-1.3 7.1-4.4 9.9-1.6 1.4-4.5 0-6.3 1.4a16.8 16.8 0 0 0-4.3 6.5c-.7 1.6-2 4.3-.9 5.9.9 1.4 1.5 1.7.7 3.2-1.3 2.4-5.4.7-6.6 2-1.8 2-1 5 .2 7 23.9-1.3 48.1-.5 72-.5Z"/>
		<path class="vernon" d="m256.9 489.3 1.2-25c-2.5 2.8-4.1-1.3-6.8-2-.9-.2-1 3.2-2 1.2-.7-1.4-1.5-1.8-3-2.3-3.7-1.3-5.9 2.5-8.5 3.3 0 0-.6-1.7-.9-1.6-.9.2-1.2 1.2-1.7 1.3-1.7.3-2.7 1.4-4.3 1.7-2.8.4 0-1.5-.1-2.6-.5-2.7-1.6-1.9-4.3-1.9l-21.2-.4c-9.7-.2-19.7-.8-29.4-.2 2.2 23.7-.3 48.4-.3 72.3l79.9 1.4c.9-15.9.3-28.7 1.2-45.2Z"/>
		<path class="bates" d="m205.3 461 21.2.4c2.7 0 3.8-.8 4.3 1.9.2 1-2.7 3 .1 2.6 1.7-.3 2.7-1.3 4.3-1.7.5 0 .8-1.1 1.7-1.3.3 0 1 1.6.9 1.6 2.6-.8 4.8-4.6 8.5-3.3 1.4.5 2.2.9 3 2.3 1 2 1.1-1.4 2-1.2 2.6.7 4.2 4.7 6.8 2l1.9-31.5c-3.8 0-3.9.3-3.9-3.2l.4-13.7.6-23.3v.4c-2-3.2-5.5-1.9-7.9-1.5 0 0-1.8-.6-2.4-.5-.4 0-1.2 1.3-1.9 1.4-1.5.4-3.4.5-4.9.4-6.8-.4-10.5-4.8-17.2-3.4-1.8-3.7-16.9-2-20.5-2.1l-26.4-.8c1.8 24.4.3 49.7.2 74.2 9.7-.6 19.7 0 29.4.2Z"/>
		<path class="cass" d="M222.7 389.5c6.7-1.4 10.4 3 17.2 3.4 1.5 0 3.4 0 4.9-.4.6-.2 1.4-1.4 1.9-1.4.6 0 2.4.5 2.4.5 2.4-.4 5.9-1.7 7.8 1.5v-.4c0-.3 0-.5.2-.7l.3-4.1h-.8c0-6.1.5-12.1.7-18.2-4.3-.2-7.9 1.5-7.8-3.2 0-4.1 0-8.3.4-12.4-3.2.2-1.4-11-1.3-13.5l.4-18.2-72.3-1.1c1.6 21.4-.6 43.8-.9 65.2l26.4.8c3.6.1 18.7-1.7 20.5 2.1Z"/>
	</g>
	<g id="county-outlines" fill="none" stroke-width="2">
		<path class="laclede" d="m523 531.1-18.5-8.8c-2.5-1.2 0-23.9-.2-26.7-2.1-.3-2.1.9-3.4 1.9-.6.5-1 .4-1.7.7-1 .5 0 1.5-.7 2-2.5 1.6-5.2-1.5-7.4 1.6-.9 1.2-6.6 4.5-8.2 4.9.2 0-4.8-4-5.3-4.6-2-2.2-4.2-6.3-4.3-9.3-.2-4-5.8-2.3-8.8-2.4-8.7-.2-18.7-2-27.3-.4a577.3 577.3 0 0 0-.7 28.9c0 1.8 2.1.9 2 4.3l-.7 39.1c8-.6 16.4.4 24.5.7l65.1 1.2.4-23.1c.4-6.3.5-7.2-4.9-9.8Z"/>
		<path class="macon" d="M437.3 167.7c8.4.2 17.5-.7 25.7 1.4-1.3 4.8-.6 10.5-2.5 14.7l59.8.2c.3-20.4 1.2-40.8 1.8-61.3-6-.2-8.7 1.7-8.6-4.6 0-2.6 1.5-9.9-.7-11.3l-74.6.7c-.4 19.8-2 40.3-.9 60.1Z"/>
		<path class="gentry" d="M234.5 89.3V45l-57.2-.6c-.2 15.5-1.2 31-1.7 46.5v15.3c19.6.1 39 .4 58.5 1l.4-17.9Z"/>
		<path class="callaway" d="M543.6 292.1c-1 3.5-.5 7-1.6 10.5-1 3.1-1.7 5.9-2.5 9.1 4 1 .6 2.3 1.1 4.3.3 1.3 2.2 3.8 3.1 4.7-.5 1.1-1.5 1.1-.5 2.1-1.5.7 1.9 7-1.5 6 0 1.6-.4 2.4-1.6 3.4-1 .9.5 1 .3 1.6l-1.8 3.2c-.3.6-2.5.2-1.2 2 0 .1-2.3 3.4-2.8 3.5-1.8.5-3.4 1.9-3.2 4.2.1 2.6 3.1 2 4 3.4 1.8 2.6.2 5.7-2.5 7.4 2.3 3.1 2.1 6 5.5 8.5 2.6 1.9 6.6 3.7 9.9 4.4 3.6.7 9 .9 12.4-.6 3.9-1.7 6.5-4.6 11-5.4 5.2-4.2 10.6-13.1 17.1-14.5 4-.8 8.7 0 12.2-2.9 4.7-4 9.8-1.6 15.4-1.7.6-21.1 2.5-42.9 1.6-64l-69.7-.8c-5.5-2.1-4.2 9.5-4.8 11.6Z"/>
		<path class="boone" d="m500.7 247.8-12.6 28.5c-2.6 5.9-8.9 15.2-7.1 21.9 3.7 1.8 7.5 5.5 9.7 8.8 3 3.3 2.5 7.6 5.2 11 1.9 2.4 4.2 5.5 7 7 1.1.6 2.6-.6 3.5.7 1.3 1.8 1.1 3.6-.2 5.3-2 2.6-3.1 6.4.2 8.5 3.4.8 8 2.1 6.2 6.1-1.6 3.5-.6 5.6 3.5 5.9 4.5.3 5.5 1.2 9 2.9 2.7 1.3 5.9.6 7.9 3 2.7-1.7 4.3-4.8 2.5-7.4-.9-1.3-3.9-.8-4-3.4a4 4 0 0 1 3.2-4.2c.5-.1 2.9-3.4 2.8-3.5-1.3-1.8.9-1.4 1.2-2l1.8-3.2c.2-.6-1.3-.6-.3-1.6 1.1-1 1.6-1.8 1.6-3.4 3.4 1 0-5.3 1.5-6-1-1 0-1 .5-2.1-.9-.9-2.8-3.3-3.1-4.7-.5-2 2.9-3.3-1.1-4.3.8-3.2 1.5-6 2.5-9.1 1.1-3.5.6-7 1.6-10.5.6-2.1-.7-13.7 4.8-11.6-.4-4.7.3-9.6.4-14.3 0-2.5 2.4-15.2.7-17-1.7-1.8-12.3-.6-14.6-.7l-17.1-.7c-5.7 0-11.5-.4-17.2-.1Z"/>
		<path class="sullivan" d="M438.2 107.6c-3.6-2.3-1.2-21.1-1.2-26.5V53.4l.4-7.3H381.3c-4.8 0-16.6 2.6-20.1-1.5l-.4 22.4c0 13.8.3 27.6.5 41.3 25.6-.3 51.3-.7 76.9-.8Z"/>
		<path class="daviess" d="M236.3 116.2c0 4.2 0 8.4-.2 12.6-.2 7.7-.7 15.8-.2 23.5 21.9.2 44.5 2.1 66.4.5v-31.1c-.1-10.7-.6-20.7-.8-31.6-22.3 0-44.6-.4-66.9-1l-.4 17.9c4.3-.8 2.2 6.3 2.2 9.1Z"/>
		<path class="grundy" d="m361.6 120.5-.3-12.1c-.3-13.8-.6-27.6-.5-41.3h-58.9l-.5 23.2c.2 10.8.7 20.8.8 31.6l59.3-1.3Z"/>
		<path class="adair" d="M438.2 107.6c24.9-.3 49.8-.6 74.6-.7.2-15.6 0-31.1 0-46.7l-.7-7.7c-16.6.1-33.1.4-49.7.7l-25.5.2v27.7c0 5.3-2.4 24.2 1.2 26.5Z"/>
		<path class="phelps" d="M592.3 508.9h41.8c0-10.2 0-20.4.2-30.6 0-7.6.2-15.1.3-22.7 0-3.1 1.5-12.6-1.5-12.7h-14.2l-.2 18.8-38.4-.6c-1.1 0-2.4 1.7-3.6 2-.8.2-.7 1.1-1.5 1.3-1 .3-1.6-.8-2.7-.7-2.3.1-2.7 2.8-3.3 4.7-.4 1.3-7 .4-8.5.4-.1 13.2-.5 26.5 0 39.6 0 1.4 1.4 1.5.7 2.9-.7 1.5-.4 3.2-.4 4.8 0 2.9-.3 5-.4 7.5-.3 5.9 0 11.9-.1 17.9 10.4.2 20.9.6 31.3 1 .4-11.3 1.1-22.8.6-33.6Z"/>
		<path class="reynolds" d="M750.6 585.4c.2-4.1-4.1.2-4.1-4.8l.2-37.9c0-4.2-51.2 1.4-57.5 1.3l-23.2-.3.2 13.6c0 3.6 7.3 2.2 10.3 2.3 5.5.3 4.2 1.1 4.1 6.6l-.2 9.4c4.4.2 6-1 6 3.6l.1 10.7c0 3.6 2.9 2.1 2.9 4.3 0 3.1-.7 7.8.9 9.5.7.7 3.4-.2 3.9.6 1.2 1.7-1.3 2.4-1.3 2.5-.1 2 .1 4 .2 6 0 .8 3.1 1.1 3.4.5 1.8-3.4 2.7 2.6 2.9 4.2.5-.3 4 2.3 3.2 2.4 1.4.2 3.2-.3 4.5-.4l.2 3c.2 2.7 1.8.6 2.2 1.8.7 2.1.2 5 .4 7.2 8.3-.6 8-.1 7.8 7.7 9.1.1 18.2.6 27.3.9-.1-3.2.2-6.5.3-9.7l.2-5.8c0-.8 3 .1 3.4-.4.6-.8.3-2.8.3-3.7 0-1.6 2.3 0 2.3-1.5 0-3.5.2-7 .4-10.5-.8-1.7-.3-5.3-.2-7.6-3.8.5-1.4-12.5-1.3-15.5Z"/>
		<path class="dent" d="M676.5 559.6c-3-.1-10.2 1.3-10.3-2.3l-.2-13.6 23.2.3c0-6.3-.4-12.6.2-18.9-6.9.4-14.2-.5-21.2-.8-4.6-.2-2-10.9-1.9-14.8-10.5.8-21.6-.4-32.2-.7h-41.8c.5 10.8-.2 22.3-.6 33.6 4.8.3 8.3-1.3 8.4 3.8 0 6 .2 11.9.3 17.9 0 2.1-.6 9.3.9 9.3l15 .5 64.1 1.6.2-9.4c0-5.5 1.4-6.3-4.1-6.6Z"/>
		<path class="pulaski" d="M560.5 523.6c.1-2.5.4-4.7.4-7.5 0-1.6-.4-3.4.4-4.8.7-1.4-.7-1.5-.7-2.9-.6-13.2-.2-26.4 0-39.6l-23.3-.9-32.3-.7c.5 9.4-.3 19-.5 28.4.2 2.8-2.4 25.5.2 26.7l18.5 8.8c5.4 2.6 5.4 3.5 4.9 9.8l32.4.6c0-5.9-.2-11.9.1-17.9Z"/>
		<path class="osage" d="M601 347c-3.5 3-8.2 2.1-12.2 2.9-6.6 1.3-11.9 10.2-17.1 14.5-1.4 3.7-8.1 3.7-10.2 6.7-2.5 3.6 2.9 7.5.8 12-1.9 4.1-7.2 5.1-11.1 6.2-4 1.1-7.9-2.5-11.6-1 1.6 1.8 1.1 5.2 4.1 6.1 2.4.7 4.1 5.4 3.1 7.5-1.3 2.9-4.4 2.4-6.9 3-1.8.4-1.8-1-3.5 1.2-.8 1.1-.6 4-.5 5.3v8c27.6.3 53.7-.5 81-.2a9078 9078 0 0 1-.5-73.8c-5.6 0-10.7-2.3-15.4 1.7Z"/>
		<path class="gasconade" d="M616.7 432.5c0 2.5-1.9 11 2 10.4h14.2l.4-9.6c0-.8 5.3-.3 6.1-.3 6 0 12.1-.1 18.1.3.2-3.7 2.9-36 .3-36.7 1.4-16.8-.1-33.5 0-50.3-2.3-1.1-4.8-2.7-7.5-2.6-6.3-.3-11.8 2.8-17.2 5-7 2.8-10.6-3.8-16.9-3.3 0 24.6.2 49.2.5 73.8l-.2 13.3Z"/>
		<path class="crawford" d="M639.5 433c-.8 0-6.1-.5-6.1.3l-.4 9.6c3 .2 1.6 9.6 1.5 12.7 0 7.6-.2 15.1-.3 22.7l-.2 30.6c10.6.3 21.7 1.5 32.2.7 0 3.9-2.7 14.6 1.9 14.8 7 .3 14.3 1.2 21.2.8 2.4 0 1.2-5 1.2-7 0-.9 5.6-.6 6.7-.6 1.2-14.4.9-29.1 1.3-43.5.3-13 .9-26.6-.2-39.5-13.6 0-27.2.3-40.8-.1v-1c-5.9-.4-12-.2-18.1-.3Z"/>
		<path class="iron" d="M690.6 518.1c0 2 1.1 7.1-1.2 7-.5 6.2-.1 12.6-.2 18.9 6.3.1 57.5-5.5 57.5-1.3l-.2 37.9c0 5 4.3.7 4.1 4.8-.1 3-2.5 16 1.3 15.5 6.4 0 12.7-.2 19.1-.3l7.9-.1c.5 0 .8-6.3.8-6.8-.2-11 0-22 0-33l.1-16.6c0-1.6 1.7-.7 1.7-1.7l.5-7.7c-3.2 0-15.5 1.8-17.1-.4-1.5-2.1.5-13.6.7-16.2-22.8-.2-45.6 0-68.5-.7-1.1 0-6.7-.3-6.7.6Z"/>
		<path class="randolph" d="M458.9 234.6c14 4.3 27.8 8.8 41.7 13.3 5.7-.3 11.5 0 17.2.1.1-5.8 0-11.7.4-17.5 1-15.5 1.4-31 2-46.5l-59.8-.2c-.7 16.9-1.1 33.9-1.6 50.8Z"/>
		<path class="douglas" d="m462.6 636.8-31.8-.5c-1.5 15.3-1.3 31-1.8 46.4l21.2 1 97.4 1.6h2.8l1.1-46.4-25.2-.7-63.8-1.3Z"/>
		<path class="texas" d="M601.3 573.5c-1.5 0-.9-7.3-.9-9.3l-.3-17.9c0-5.1-3.7-3.4-8.4-3.8-10.4-.4-20.9-.8-31.3-1l-32.4-.6-.4 23.1c-.6 25.9 0 48.5-1.1 74.2l25.2.7 34.2.9c9.2.2 19.6 1.7 28.8.8.4-23.2 1.7-43.5 1.9-66.5l-15-.5Z"/>
		<path class="lawrence" d="m325.3 598.8-2.9.3c-21.1-.6-42.1-1-63.2-1.4l-1.1 42c.4 7.2-.2 14.6-.3 21.9l33.3.7c10.6.2 21.9 1.6 32.4.5l.3-12.1.7-19.1c-.5-10.8.5-21.9.8-32.7Z"/>
		<path class="shannon" d="M695.3 634.1c4.9 0 9.9-1.7 14.7-2.7-.1-2.2.3-5.2-.4-7.2-.4-1.3-2 .9-2.2-1.8l-.2-3c-1.3.1-3.2.6-4.5.4h-.3.3c.8-.1-2.7-2.7-3.2-2.4v.4c-.1-.2-.1-.3 0-.4-.2-1.6-1.1-7.5-2.9-4.2-.3.6-3.4.3-3.4-.5 0-2-.3-4-.2-6 0-.1 2.5-.8 1.3-2.5-.5-.8-3.2 0-3.9-.6-1.6-1.6-.9-6.4-.9-9.5 0-2.2-2.9-.5-2.9-4.3l-.1-10.7c0-4.6-1.7-3.3-6-3.6-21.4-.6-42.7-1.2-64.1-1.6-.1 23.1-1.5 43.4-1.9 66.5v29c21.7.2 43.5.5 65.2.9 0-11.4.3-22.7.4-34.1 0-4.5 11.4-2.2 15.3-2.2Z"/>
		<path class="christian" d="M420.4 633.4c-5-.1-10.1 0-15-.6-14.7 1.4-30.3-.5-45.1-.8l-35.8-.5-.7 19.1 40.6.9c.8 0 .1 15.9.1 17.4l-.1 11.5c0 2.1 3.5 1.3 5.2 1.4l59.4.8c.5-15.3.2-31.1 1.8-46.4 1.2-4.7-7.6-2.8-10.4-2.9Z"/>
		<path class="carter" d="M758.4 655.7c0-1.4-2.8.3-2.8-1.2 0-1 .4-3.4 0-4.3-.8-1.5-3.1 1.2-3.2-1.5v-7.2c0-2.4-5-1.5-7.1-1.6-9.1-.3-18.2-.8-27.3-.9.2-7.8.5-8.2-7.8-7.7-4.8 1-9.8 2.7-14.7 2.7s-15.2-2.3-15.3 2.2l-.4 34.1c0 1.8-.9 10.2.8 10.2l15.4.6c22.5.2 44.9 1.4 67.4 1.5v-11.5c0-1.4-2 0-2-2.5 0-2 0-4.1-.2-6.1-3.9.6-2.6-4.1-2.7-6.9Z"/>
		<path class="stoddard" d="M867.7 637.8c-1.1 1-4.7-.9-4.9 1-.2 2.4-.5 1.9-2.9 1.9h-14.6c-5.4.1-5.6-.7-5.9 4.8-.2 2.6-2.1.9-2.2 2.4 0 1.1.3 3.1-.9 3.2-3.3.3-.5 1.1-2.2 3-1 1.1-2.3-1.1-2.4 1.1-.1 2.2-2.8 0-3 1.9 0 1.1-.2 2.4-.1 3.5-3.1 0-2.1 2.6-5.2 2.2v.3h0c.7 1.5 1.6 2.8.2 4.2 3.9.4 0 2.8.3 4.2.3 1.4 3 2.8 4 4 2.1 2.7.3 2.2 1.3 4.8 1.1 3 4.3 4.4 2.2 8.2-1.1 1.9 8.8 9 7.5 12-.7 1.4 1.2 3.6 1.1 5.2-.2 2.6 2.4 4.7-.4 4.8 1.6 1.6 1.2 3.6 0 4.9h29l23.3.5 12.2.2c2.5 0 1.5-3.2 1.6-5.3l.2-19.5c0-3-1.7-16.5.8-17.1-.4-4.6 1.8-9.8-.3-14.3-.9-1.9-1.9-2.4-2.5-4.3-.8-2.6-.7-4.1-2.2-6.7-1-1.9-3.1-2.8-4.1-4.8-.5-1 .9-2.7-.7-3.7-4-2.6-1.6-10.7-1-14.1l-13.7-.2h-13.4c-1.3 0 .3 10.8-.7 11.8Z"/>
		<path class="wayne" d="m828.5 660.6.1-3.5c.1-1.8 2.8.3 3-1.9.1-2.2 1.4 0 2.4-1.1 1.7-1.9-1.1-2.7 2.2-3 1.2-.1.8-2.1.9-3.2.1-1.5 2 .1 2.2-2.4.4-5.5.5-4.7 5.9-4.8 0-5.6 1.3-6.7-4.5-6.8l-11.3.2c0-13.4.1-26.8 0-40.3h-49.6c0 .5-.3 6.8-.8 6.8l-7.9.1c-6.4 0-12.7.2-19.1.3 0 2.3-.6 6 .2 7.6-.2 3.5-.4 7-.4 10.5 0 1.5-2.2 0-2.3 1.5 0 .9.2 2.9-.3 3.7-.4.5-3.4-.5-3.4.4l-.2 5.8c-.1 3.2-.4 6.5-.3 9.7 2.1.1 7.1-.9 7.1 1.6v7.2c0 2.7 2.3 0 3.2 1.5.5.9 0 3.3 0 4.3 0 1.4 2.8-.2 2.8 1.2.1 2.8-1.3 7.5 2.7 6.9 20.7 0 41.4.5 62.1.4v-.3c3.2.5 2.2-2.2 5.3-2.2Z"/>
		<path class="lafayette" d="M289.8 309.2c3 .1.3-5.2 1.9-5.2 16.6.4 33.2.4 49.7 1.2l.3-2.3c.6-20.1-.4-41.2 2.1-61.2-5.7 1.5.8 8.9-3.3 11.3-5.3 3.1-11.3-3-16-3.7-2.4-.4-3.6-1.4-6.1-.6-1.9.6-1.7 2-3.5 2.4-4.6.9-7.4 6-12.9 4.5-7.2.8-12.3-3.1-19.1 1.5-1.3.8-1.5 2.3-3.1 2.7-.8.2-1.7-.1-2.4.3-2.7 1.7-2.2 4.6-5.1 5.7-1.5.6-5.2 1.2-5.8-1.1-.4-1.4 2.4-3.6 2.8-5 2.1-7.2-5-1.3-8.8-.9 1.2 3.2 2.2 5.8-.7 8.1-2.5 1.9-6.5 1.2-9.1 0-1.2 13.5-.9 27.3-1.2 40.9l27.1.9 12.9.4Z"/>
		<path class="ray" d="M260.1 266.9c2.9-2.3 1.9-4.9.7-8.1 3.7-.3 10.9-6.2 8.8.9-.4 1.4-3.2 3.5-2.8 5 .6 2.3 4.3 1.7 5.8 1.1 2.8-1.1 2.4-4 5.1-5.7.7-.5 1.6-.1 2.4-.3 1.6-.4 1.9-1.9 3.1-2.7 6.8-4.6 11.9-.6 19.1-1.5l.3-57.3c-22.3 0-44.9 1.2-67.1 0l-.3 12.7c.5 14.7.8 29.8.2 44.5 3 .3 3.9-2.5 7 .4-3.7 4.4-2 2.7 2.3 4.3 2.7 1 4.9 4.4 6.4 6.7 2.6 1.2 6.6 1.9 9.1 0Z"/>
		<path class="johnson" d="M341.4 305.2c-16.5-.8-33.1-.9-49.7-1.2-1.6 0 1.2 5.3-1.9 5.2l-12.9-.4-27.1-.9c-.3 4.9-.7 9.8-.8 14.7l-.4 18.2c0 2.4-1.9 13.7 1.3 13.5-.4 4.1-.3 8.3-.4 12.4-.1 4.7 3.6 3 7.8 3.2 27.5.5 54.9 1.2 82.4 1.9 1.1-21.1 1-44.6 1.6-66.5Z"/>
		<path class="dekalb" d="m235.6 160.3.3-7.9c-.5-7.7 0-15.8.2-23.5l.2-12.6c0-2.8 2.1-9.9-2.2-9.1-19.5-.7-38.9-.9-58.4-1 .1 13.6 1 27.5.3 41.1l.2 13.1c19.8.5 39.7 0 59.6 0Z"/>
		<path class="dade" d="m322.9 573.5.6-26.8-68-1.8c-1.6 13.8-.8 28.3-1.2 42.2 0 2.2.2 4.4.1 6.7 0 4 .6 3.2 4.5 3.8l63.2 1.4.6-25.6Z"/>
		<path class="clinton" d="M235.6 160.3c-19.8 0-39.7.5-59.6 0 .1 12.2.4 24.5.3 36.7l.6 14.6 58.1-.5.3-12.7c-.9-12.6.1-25.5.2-38.1Z"/>
		<path class="cedar" d="M324.4 522.1c0-1 .8-5.1-.3-5.2-2.4-.2-2.8.3-2.8-2l.3-13-20.2-.9-7.6-.4c-.3 0 0-8.6.1-9.6 0-.8-34.7-1.6-37-1.7-1 16.4-.3 29.2-1.2 45.2V545l68 1.8.9-24.7Z"/>
		<path class="st_clair" d="m293.8 500.5 7.6.4 20.2.9 8.1.3.4-15.4c0-2.6 8.5 1 8.6-1.1.6-9.2 1.8-18.5 1.7-27.7.1-6.8.8-13.7.3-20.4-2.9 1.3-1.7-2.1-2.6-3.9-2.9 1-4.1-1.6-6.7-1.7-2.5-.1 0 2.7.9 3.1l-43.1-1.3-4.3-.1c-1.4 0-2.3.8-3.3.7-1.1 0-1.7-1.1-2.7-1.2-6.3-.5-12.8-.2-19.1-.3l-1.9 31.5-1.2 25c2.4 0 37.1.8 37 1.7 0 1-.4 9.6-.1 9.6Z"/>
		<path class="henry" d="M279 433.1c.9 0 1.6 1.1 2.7 1.2 1.1 0 2.2-.7 3.3-.7l4.3.1 43.1 1.3c-.8-.4-3.3-3.3-.9-3.1 2.6.1 3.8 2.7 6.7 1.7.6-14.7.3-29.8 2.1-44.4-2.5-.6-.9-7.5-.3-9.9l-.3-7.6c-27.5-.7-54.9-1.4-82.4-1.9-.3 6.1-.6 12.1-.7 18.2h.8l-.3 4.1v.7a1812.1 1812.1 0 0 0-1.1 37c0 3.5 0 3.1 3.9 3.2 6.3 0 12.8-.2 19.1.3Z"/>
		<path class="miller" d="M530.6 411.3c-1 .2-1.5 1.7-2.7 1.7-1.9 0-3.3-1.6-5-1.6l-18.6-.6c.3-2.7 2.3-13.4.7-15-1.5-1.6-11.2-.6-13.7-.8-6.3-.8-12.9-.5-19.3-.7-2.1 1.3-1.4 7.9-1.5 10.6-.4 5.7-1.6 4.3-7.3 4.5-3.2.1-2.2 18.7-2.3 22.2 1.7.5 7.1.9 8.5 2.4 2.1 2.2-1.6 6.2 2.1 6.6 2.1.2 3-.4 3 1.8 0 1.3-.9 4.1.6 4.3.2 0 2.3 5.9 2.3 6.4 0 1.6 2.2-.1 2.2 2.4 0 1.1-.7 4.1.6 4.3 3 .4.7 1 2.4 2.4l1.8.2c1.5.2.1 1.2 1 1.9 4.8 3.5 12.4 2.8 19.6 3.1l32.3.7c-.5-8.3.4-17.1.7-25.4 0-2-2.6-.2-2.5-1.5l.2-6 .4-15.7v-8c-1.6 0-3.7-.5-5.3-.1Z"/>
		<path class="camden" d="m484.3 462.2-1.8-.2c-1.7-1.5.6-2.1-2.4-2.4-1.3-.2-.6-3.2-.6-4.3 0-2.5-2.2-.8-2.2-2.4s-2.2-6.3-2.3-6.4c-1.5-.2-.7-3-.6-4.3 0-2.2-.9-1.6-3-1.8-3.7-.4 0-4.3-2.1-6.6-1.4-1.5-6.7-1.9-8.5-2.4-3.9-1.2-5.9 0-8.6 2.3-.8.7.1 1.9-.9 2.6-1.1.7-4.6 0-6-.1a74 74 0 0 0-23-.1c.7-1.2 3.4-2.4 3.8-3.2 1.2-3.1-2.2-4.2-4.3-2.3-1.8 1.6-3.7 8.4-6.8 7.1-5.1-2 5-6.7 1.1-7.1-2.1-.2-1.6-2.7-2.5-3.8-.8-.9-2.4-1.5-3.5-2.4-1.5-1.4-3.8-1.5-5.8-1.3.1 4.2-.2 8.4-.3 12.7-.1 3.2 2.1 1.4 3.3 4 .9 1.7-.4 7-.5 8.9l-.5 11.3-1 29 32 .8c8.6-1.6 18.6.2 27.3.4 3 0 8.6-1.6 8.8 2.4a17 17 0 0 0 4.3 9.3c.6.6 5.6 4.5 5.3 4.6 1.6-.4 7.3-3.7 8.2-4.9 2.2-3.1 4.9 0 7.4-1.6.7-.5-.3-1.5.7-2 .7-.3 1.1-.2 1.7-.7 1.2-1 1.3-2.2 3.4-1.9.2-9.4.9-19 .5-28.4-7.1-.3-14.7.4-19.6-3.1-.9-.6.5-1.7-1-1.9Z"/>
		<path class="maries" d="M535.3 441c0 1.2 2.6-.6 2.5 1.5-.3 8.3-1.2 17.1-.7 25.4l23.3.9c1.5 0 8.1.9 8.5-.4.6-1.8 1-4.5 3.3-4.7 1.1 0 1.8 1 2.7.7.8-.2.8-1.2 1.5-1.3 1.3-.3 2.5-2 3.6-2l38.4.6.2-18.8c-4 .6-2.1-7.9-2-10.4l.2-13.3c-27.3-.3-53.4.5-81 .2l-.4 15.7-.2 6Z"/>
		<path class="dallas" d="M388 488.7c-2 1.5-.8 15.4-.9 18.3 0 2.8-.7 6.2-.1 8.9.3 1.3-.7 3.1.9 3.3.2 0 2.4 0 2.3.5l-.6 17.2c-.4 12.6.4 26.1-1.4 38.6l16.4.7c.6-4 .6-8.2.9-12.3.2-3.7 6.9-1.9 10-1.9l22.4.2.7-39.1c0-3.4-2.1-2.5-2-4.3l.2-10.3c.1-6.2.2-12.4.5-18.6l-32-.8c-3.4 0-14.8-2.3-17.3-.4Z"/>
		<path class="morgan" d="M410.1 424.5c1 .9 2.7 1.5 3.5 2.4 1 1.1.5 3.5 2.5 3.8 3.9.5-6.2 5.1-1.1 7.1 3.1 1.2 5.1-5.5 6.8-7.1 2.1-1.9 5.5-.8 4.3 2.3-.3.9-3.1 2.1-3.8 3.2a74 74 0 0 1 23 .1c1.4.2 4.9.8 6 .1 1.1-.6.1-1.9.9-2.6 2.7-2.3 4.7-3.5 8.6-2.3.1-3.6-.9-22.1 2.3-22.2 5.7-.2 7 1.2 7.3-4.5.2-2.7-.6-9.3 1.5-10.6l-25.4-23.6c-2.1-1.9-7-4.8-7-7.9l.1-14.4c-11.1-.2-21.9-.7-33-1.7-1.1 9.5-.9 19.4-1.2 29-.3 15.9-.8 31.7-1.2 47.6 2-.2 4.3 0 5.8 1.3Z"/>
		<path class="bollinger" d="M840 593.7h-10.7c.2 13.5.1 26.9 0 40.3l11.3-.2c5.8 0 4.5 1.2 4.5 6.8h14.6c2.4 0 2.7.6 2.9-1.9.2-1.9 3.8 0 4.9-1 1.1-1-.5-11.8.7-11.8h13.4c0-11.7 0-21.6.8-33.2-3.1-1.2-.9-23.2-.9-27.3 0-7.8.8-15.4.6-23.4l-42.2.3c.7 17.1-.5 34 0 51.2Z"/>
		<path class="cole" d="M504.9 395.7c1.6 1.6-.4 12.3-.7 15l18.6.6c1.7 0 3.1 1.7 5 1.6 1.2 0 1.7-1.5 2.7-1.7 1.6-.4 3.7 0 5.3.1 0-1.3-.3-4.2.5-5.3 1.6-2.2 1.7-.8 3.5-1.2 2.5-.6 5.6-.1 6.9-3 1-2.1-.7-6.8-3.1-7.5-2.9-.9-2.5-4.3-4.1-6.1 3.7-1.5 7.6 2.1 11.6 1 3.9-1.1 9.2-2.1 11.1-6.2 2.1-4.5-3.3-8.4-.8-12 2.1-3 8.8-3 10.2-6.7-4.5.8-7.1 3.7-11 5.4a23.7 23.7 0 0 1-12.4.6c-3.3-.7-7.2-2.5-9.9-4.4-3.4-2.5-3.2-5.4-5.5-8.5-2-2.4-5.3-1.7-7.9-3-3.5-1.7-4.5-2.6-9-2.9-4.1-.3-5.1-2.4-3.5-5.9 1.8-4-2.8-5.3-6.2-6.1-5 19.1-10.2 36.3-15 55.3 2.5.1 12.1-.8 13.7.8Z"/>
		<path class="benton" d="M406.8 448.8c0-1.9 1.3-7.1.5-8.9-1.3-2.6-3.5-.8-3.3-4 .1-4.2.5-8.4.3-12.7.5-15.9.9-31.7 1.2-47.6l-19.6-.8-7.4-.2c-5.8-.1-.1 2.8-3.1 5.5-2 1.8-13.7-.3-16.3-.3l-19.1-.5c-.6 2.4-2.2 9.3.3 9.9-1.7 14.6-1.5 29.7-2.1 44.4.9 1.9-.3 5.2 2.6 3.9.4 6.7-.2 13.7-.3 20.4l65.8 2.1.5-11.3Z"/>
		<path class="pettis" d="M375.4 380.1c3-2.7-2.7-5.6 3.1-5.5 2.5 0 4.9 0 7.4.2l19.6.8c.4-9.5 0-19.5 1.2-29-.4-13.9.8-27.9 1.3-41.7-21.7-2.3-44.5-1.4-66.3-1.9l-.3 2.3c-.6 21.8-.5 45.3-1.6 66.5l.3 7.6 19.1.5c2.6 0 14.3 2.1 16.3.3Z"/>
		<path class="saline" d="m411.8 293.9 13.6-11.9c1.7-2.1 6.6-6.3.9-6.3s-.7-5.3.4-7c2.1-3.4 1.9-5.8 5.1-8.6 2.2-1.9 5.7-3.8 5.3-7.2-.8-3.2-4.1-.6-6.5-.6-4.3 0-2.3-2.1-4.2-4.8-1.2-1.8-3.4-2.8-4.6-4.5-1-1.4.4-3.9-1.1-5.4-3-3.1-10.7-.3-14.5-3.3-3.4-2.6-2.6-10.6-8-10.1-5.3 1.9-4.8-4.3-8.5-4.4-5-.1-1.9 5.2-4.2 8.5-1.2 1.9-3 6.5-5.8 5.1-2.8-1.4-2.2-.7-4.6.9-2 1.3-3 3.3-5.7 3.4-1.3 0-4.5.5-5.2 1.7-1.5 2.7 3.7 5.1.9 8.9-1.9 2.6-6 3.7-9 3.5-1.7-.1-2.1-1.1-2.1-2.4 0-3.8 2.5-1.9-1-4.1-.8-.5-1.8-.3-2.7-.2-1.7 0-1.1-1.8-2.4-2.3-1.6-.7-2.3-1.8-4.2-.9-2.5 20-1.5 41.1-2.1 61.2 21.8.5 44.6-.4 66.3 1.9 0-5.3-.2-7.5 3.8-11Z"/>
		<path class="carroll" d="M348 242.6c1.2.6.6 2.4 2.4 2.3.8 0 1.9-.2 2.7.2 3.6 2.2 1.1.3 1 4.1 0 1.4.4 2.3 2.1 2.4 3 .3 7.1-.9 9-3.5 2.8-3.8-2.4-6.2-.9-8.9.7-1.2 3.9-1.6 5.2-1.7 2.7-.1 3.7-2.1 5.7-3.4 2.4-1.6 1.8-2.3 4.6-.9 2.8 1.5 4.6-3.2 5.8-5.1 2.2-3.3-.9-8.7 4.2-8.5 3.7 0 3.2 6.3 8.5 4.4 0-1.3-.2-2.6-.4-3.8v.5c.4-3.4-2.5-3.2-5-3.3-2.5 0-3.1-2.5-6.1-2.7-1.1 0-2.4.8-2.9.8-.6 0 0-3.2-2-.4-1.4-1.1-.2-3.1.2-4.7.8-2.9-2.5-2.9-3-.2-.2-.2-6.5-1.1-4-1.7 2.2-.5-.2-1.5 0-2.2.3-.9-1.3-1.2-.1-1.8.3-.2 1.6-1.3 1.5-1.7-.3-1.6-2.5-4-3.3-5.5-1.9-3.6 1.7 0 4.1-1.5-3-1.3-1.4-10.1-3.3-13.4-11.1 1.9-23.8.4-35.1.5l-36.4.4c0 4.9.2 9.9 0 14.8l-.3 57.3c5.5 1.5 8.2-3.6 12.9-4.5 1.7-.4 1.5-1.8 3.5-2.4 2.4-.8 3.6.2 6.1.6 4.7.7 10.7 6.8 16 3.7 4.1-2.4-2.4-9.8 3.3-11.3 1.9-.9 2.6.2 4.2.9Z"/>
		<path class="hickory" d="m340.8 504.6 20.4 1L387 507c.1-2.9-1-16.8.9-18.3 2.5-1.9 13.9.3 17.3.4l1-29-65.8-2.1c.1 9.2-1.1 18.5-1.7 27.7-.1 2.1-8.6-1.4-8.6 1.1l-.4 15.4c-.6 3.7 8.6 2.4 11.1 2.5Z"/>
		<path class="webster" d="M463.6 604.5c.1-3.8-1.5-.6-2.3-2.8-1.8-5.1.4-14.8.6-20.2l.5-18.6c-8-.3-16.5-1.3-24.5-.7l-22.4-.2c-3.1 0-9.7-1.8-10 1.9-.3 4.1-.3 8.2-.9 12.3l-.5 16.3-.3 7.9c0 1.4 2.6 0 2.5 1.2l-1 31.4c4.9.6 10 .4 15 .6 2.9 0 11.6-1.7 10.4 2.9l31.8.5.6-20.6.4-11.8Z"/>
		<path class="polk" d="m389.7 536.8.6-17.2c0-.6-2.2-.5-2.3-.5-1.6-.2-.6-1.9-.9-3.3-.6-2.7 0-6.1.1-8.9l-25.8-1.4-20.4-1c-2.5-.1-11.7 1.2-11.1-2.5l-8.1-.3-.3 13c0 2.3.4 1.8 2.8 2 1.1.1.4 4.3.3 5.2l-.9 24.7-.6 26.8 65.4 1.9c1.8-12.5 1-26 1.4-38.6Z"/>
		<path class="greene" d="m403.9 600.3.3-7.9.5-16.3-16.4-.7-65.4-1.9-.6 25.6 2.9-.3c-.3 10.8-1.3 21.9-.8 32.7l35.8.5c14.8.3 30.4 2.1 45.1.8l1-31.4c0-1.3-2.6.3-2.5-1.2Z"/>
		<path class="caldwell" d="M302.3 152.9c-21.9 1.5-44.4-.3-66.4-.5l-.3 7.9c-.1 12.6-1.1 25.5-.2 38.1 22.3 1.1 44.9 0 67.1 0v-14.8c.6-10.1 0-20.5-.3-30.7Z"/>
		<path class="cooper" d="M473.6 298.1c-3.3-.6-6.1-1.1-9.6-1.1-5.6 0-11.2-.2-16.9 0-2.6.1-6.9 0-9.2-1-2-.8-2.3-2.7-3.6-3.7-2.4-1.8-4.5-1.8-6.4-4-1.3-1.5-1.8-4.6-2.5-6.4l-13.6 11.9c-4 3.5-3.7 5.7-3.8 11-.5 13.9-1.7 27.9-1.3 41.7 11.1 1 21.9 1.5 33 1.7h32.5c.6 0 .7-1.8 1-2.5l17.4-38.7c-2.2-3.3-6-7-9.7-8.8-2.5-.4-4.6.3-7.3-.1Z"/>
		<path class="howard" d="m446 232.9-8.9 20c.4 3.4-3.1 5.3-5.3 7.2-3.2 2.8-3 5.2-5.1 8.6-1.1 1.7-6.4 7-.4 7s.7 4.2-.9 6.3c.7 1.9 1.2 4.9 2.5 6.4 1.9 2.2 4.1 2.2 6.4 4 1.3 1 1.6 2.8 3.6 3.7 2.3 1 6.6 1.1 9.2 1 5.7-.3 11.3-.2 16.9 0 3.4 0 6.3.6 9.6 1.1 2.7.5 4.8-.2 7.3.1-1.8-6.7 4.5-16.1 7.1-21.9l12.6-28.5c-13.9-4.5-27.8-9-41.7-13.3-3.5-1.3-11.2-5.5-12.9-1.7Z"/>
		<path class="chariton" d="M372.9 175.8c2.5 2 6.1 5.8 1.1 6.8 1.9 3.2.3 12.1 3.3 13.4-2.4 1.5-5.9-2.1-4.1 1.5.8 1.5 3 3.9 3.3 5.5 0 .4-1.2 1.5-1.5 1.7-1.2.7.4.9.1 1.8-.2.7 2.1 1.7 0 2.2-2.5.6 3.8 1.5 4 1.7.5-2.7 3.7-2.7 3 .2-.4 1.6-1.6 3.5-.2 4.7 2-2.8 1.4.4 2 .4.5 0 1.9-.9 2.9-.8 3 .2 3.6 2.6 6.1 2.7 2.4 0 5.3 0 4.9 3.3v-.5c.3 1.3.4 2.6.4 3.8 5.3-.4 4.6 7.5 8 10.1 3.8 3 11.5.2 14.5 3.3 1.5 1.6.2 4 1.1 5.4 1.2 1.7 3.3 2.7 4.6 4.5 1.9 2.7-.1 4.7 4.2 4.8 2.4 0 5.7-2.6 6.5.6l8.9-20c1.7-3.8 9.4.4 12.9 1.7.5-16.9.9-33.9 1.6-50.8 1.9-4.3 1.2-9.9 2.5-14.7-8.2-2.1-17.3-1.2-25.7-1.4l-61.5-.8c-2.8 2.5-.8 8.1-2.9 9Z"/>
		<path class="moniteau" d="M472.2 348.3h-32.5c0 4.8-.2 9.6-.1 14.4 0 3.1 4.9 5.9 7 7.9l25.4 23.6c6.4.2 12.9 0 19.3.7 4.9-19 10-36.2 15-55.3-3.3-2.1-2.2-5.9-.2-8.5 1.3-1.6 1.5-3.4.2-5.3-.9-1.3-2.3 0-3.5-.7-2.8-1.5-5.1-4.6-7-7-2.7-3.4-2.2-7.7-5.2-11l-17.4 38.7c-.3.7-.5 2.5-1 2.5Z"/>
		<path class="livingston" d="m302.6 183.5 36.4-.4c11.2-.1 24 1.4 35.1-.5 5-1 1.4-4.8-1.1-6.8 2.1-.9 0-6.5 2.9-9-1.9 0-15.1.7-15.2-.4-.5-3.8.1-8.4.2-12.3.3-12.1 1-21.6.7-33.6l-59.3 1.3v31.1c.2 10.1.9 20.6.3 30.7Z"/>
		<path class="wright" d="M461.8 581.4c-.2 5.4-2.4 15.1-.6 20.2.8 2.2 2.4-.9 2.3 2.8l-.4 11.8-.6 20.6 63.8 1.3c1.1-25.7.5-48.2 1.1-74.2l-65.1-1.2-.5 18.6Z"/>
		<path class="linn" d="M360.8 154.2c0 3.9-.7 8.5-.2 12.3.1 1 13.4.4 15.2.4l61.5.8c-1.2-19.8.5-40.2.9-60.1-25.6.1-51.3.5-76.9.8l.3 12.1c.3 12-.4 21.6-.7 33.6Z"/>
		<path class="perry" d="m839.7 534.6.3 7.9 42.2-.3c2.3-.3 6-.5 8.3 0 1.6.3 2.7 1.7 4.2 2 2.5.6 4.4-.1 5.8-1.6 1-1 2.1 1.8 3.1.8.4-.5.5-1.1 1.1-1 1 .2 5.6 4.9 6.5 2.2.7-2 5.3-3.6 3.9 0 2.5 0 2.9-1 4.6-2.2.6-.5 1.9 4.6 2 5.3 3.1-.8 7.8-.5 11.1.1-1.3-4.2 2.2-7.3.7-11.3-1.6-4 2.7-8-1.3-10.8-4.1-2.8-10-2.4-14.3-5.3-1.5-1-3.1-3.1-5-3.4-3-.5-1.5-3.5-2-5.6-1.2-5.6-6.3-6-8.9-10.5-2.8-4.8-7.8-5.6-11.9-8.3-1.5-.9-2.6-3.1-4.3-3.7-4.2-1.6-1.4 0-3.6 1.4-4.3 2.5-6.1 2.2-10.6 2.4a171 171 0 0 0-26.5 36.6l-5.3 5.2Z"/>
		<path class="st_louis_city" d="M834.9 333.3c-1.7 2.9-4.1 3.4-6.2 5.6l-8.2 9.1c-4.3 4.7-3.4 8.3-5.1 14.2-2.3 7.7 5.1 8.1 8.3 13.9 3.8-8.9 14.3-11.5 11.4-22.8-1.4-5.6-4.8-8.6-.2-13.8 2.5-2.8 8.4-7.6 9.6-11.1-3.9.6-7.6 1.3-9.6 4.9Z"/>
		<path class="mississippi" d="M954.3 655.4c-.7.7-4.2.4-5.2.5.5 3.5-3.3.6-3.5 4.1 0 2.3-4.9-.9-4.8 3.1 0 4.1-4.8.9-5 4.3 0 1.2.4 3.4-1 3.5-1.7 0-2.2-.3-2.3 1.5l.3 4 2.5-.2c-.6 2.2-.2 3 1.8 3.1 1.8 0-.7 3.1 2.1 3.1v2c1.9-.4 6.3 8.2 7.7 9.7 1.5 1.6 4.8 4.9 4.8 6.4 0 3.5 1.3.3 2.9 2.1 1.2 1.3-1 2.8 1.4 2.9.3 2.3 2.1 3.3 3.3 5.7.9 2 1.1 5.2 1.2 8.3 5.9.2 7.1 7.4 12.8 7.6 9.1.3 4.8-8.7 8.6-12.5.8-.8 4.6-5.9 4.3-6.3-1.3-1.9-1.3-3.7-2.3-5.4-1.3-2.4-2.7-1.8-2.2-5a16 16 0 0 1 3.3-6.2c1.3-.7 12 .7 7.1-5.4-1.2-1.5-4.8-.8-6.2-2.8-1.3-1.9-1.2-5.3 1-6.5 5.2-2.8 13.3-23.9 3.5-25-2.2 1.1-6.6 2.6-8.8.5-1.6-1.5-.2-4.4-1.3-6.3-1.5-2.7-5-3.1-6.6-6-1-1.7-.8-4.7-2.7-5.9-2.3-1.6-5.2-1.2-6.5 1.4-1.6 3.3.5 4.3 2.5 6.3 1.1 1.1 6.1 3.9 3.9 6.1-2.4 2.4-4.5 2.1-6.7-.3-5.2 0-5 .9-9.4 3.4-1.4.8.4 3.4-.5 4.2Z"/>
		<path class="ste_genevieve" d="M817.6 454.5c-4.4-.8-3.8-1.7-7.5 1.2l-9.5 7.2 13.4 10.5-19.5 17.9c-2.4 2.2 9.2 10.9 11.2 12.7l24 22.7c3.1 3 3.2 1.3 6.6-1.7 3.5-3 5.6 1.6 8.5 4.4a171.9 171.9 0 0 1 26.5-36.6c-2.8-2-9.2-6.1-4.6-10.1 3.5-3.1 1.8-5.1-1.9-4.8-4.3.3-4.9-1.9-7.7-4.3-5.6-4.8-11-6.1-15.4-12.1-2.4-3.3-6.4-3-9.6-5-3-1.9-5.4-5.3-7.7-7.9 0 1-5.9 6.2-7 6.1Z"/>
		<path class="jefferson" d="M810.2 395.2c.4-1.4 2.4-2.7 1.7-4.3-1.7-3.8-7.4 2.3-8.5-.6-.3-.8-2.3-.3-3.1-2.6-1.3-3.8 1.1-1.1 1-3.5-.1-3.7-6-3-9.5-2.9l-11 .1c-3.7 0-6.8-.6-7 .3-.4 1.6-.9 3.9-2.3 4.9-2.6 1.8-5-3.2-7.6-.2-1.3 1.5 1.6 4-1.2 5.1-.7.3-2 .2-3 .3 1.9-4.6-6.7-4.8-7.2-2.4l-.2-1.2c-.2 15.5-3.8 30.3-6.4 45.6 4.1 4.9 8.9 10.1 12.3 15.1 1.6 2.2 1.6 6.3 4.9 4.8 3.3-1.6-.4 3.3 4.1 2.9 6.4-2.2 2.8 4 3.1 6.4.1 1.2 0 4.3.2 5 .2.7-2.4 1.3.4 2 4.6 1.1 8.9-.8 13.4-2.2 5.4-1.7 11-2.7 16.2-5l9.5-7.2c3.7-2.8 3.2-1.9 7.5-1.2 1.1.2 6.9-5.1 7-6.1-1.8-1.8-3.1-4.1-4.6-6.2-1.7-2.4-4.5-2.2-6.6-3.9-4.2-3.3-5.8-8.9-6.2-13.9-.5-6.3-1.5-18.1 4.2-22.5-.7-2-1.9-4.6-1.3-6.7Z"/>
		<path class="cape_girardeau" d="M921.7 547.7c-.1-.7-1.4-5.8-2-5.3-1.7 1.2-2 2.1-4.6 2.2 1.4-3.6-3.2-1.9-3.9 0-1 2.7-5.5-2-6.5-2.2-.7-.1-.7.5-1.1 1-1 1-2.1-1.8-3.1-.8a5.7 5.7 0 0 1-5.8 1.6c-1.4-.3-2.6-1.7-4.2-2-2.3-.5-6-.3-8.3 0 .2 8-.6 15.5-.6 23.4 0 4-2.2 26.1.9 27.3-.8 11.6-.9 21.4-.8 33.2l13.7.2c3.9.9.9-2.8 4.2-3 1.5 0 3 .5 3.1-1.2.1-2.3 1.6 0 2.3-1.2.7-1.2-1-3.1.9-3.3 2.3-.3 2.3 0 2.3-2.3s5.5 1.3 5.6-3.2c0 0 5-3 4.4-2.9 1.4 0 3.1 0 4.5-.2.9-.2-.9-1.5 1.6-1.5 3.6 0 11.3 0 13.7-3.3h-.3c-5.5-1.5-4.8-8.6-2.2-12.4 1.4-2 4.6-2.6 6.9-2.7 3.6-.2 3.7-4 4-6.7.9-7.6-2.3-9.4-6.4-15.4a35 35 0 0 1-7.2-19c-3.3-.7-8.1-.9-11.1-.1Z"/>
		<path class="scott" d="M924.3 607.3c-2.4 0-.7 1.3-1.6 1.5-1.4.3-3.1.2-4.5.2.6 0-4.4 3-4.4 2.9 0 4.5-5.6.9-5.6 3.2s0 1.9-2.3 2.3c-1.9.3-.1 2.1-.9 3.3-.7 1.3-2.2-1.1-2.3 1.2-.1 1.7-1.6 1.1-3.1 1.2-3.3.2-.2 3.9-4.2 3-.6 3.4-3 11.6 1 14.1 1.6 1 .2 2.7.7 3.7 1 1.9 3.1 2.9 4.1 4.8 1.5 2.6 1.4 4.1 2.2 6.7.6 1.9 1.7 2.4 2.5 4.3 2.1 4.6 0 9.7.3 14.3 4.6.4 9.3-.3 13.9-.2 1.5 0 0-1.5 1-1.5h11.3c.2-1.7.6-1.4 2.3-1.5 1.4 0 .9-2.3 1-3.5.2-3.5 5.1-.2 5-4.3 0-4 4.7-.8 4.8-3.1.1-3.5 4-.6 3.5-4.1 1-.1 4.5.1 5.2-.5.9-.9-.9-3.4.5-4.2 4.3-2.5 4.2-3.3 9.4-3.4-2.7-2.2-11.8-4.9-11.2-9.2.5-3.4 2-3.9.2-7.4-1.4-2.6-3.9-3.4-5.7-5.5-1.8-2.1-1.6-5.1-2.7-7.2-1.4-2.9-2.7-4.1-3.6-7.5-1-3.8 2.7-7.3-3.2-7-2.5 3.4-10.2 3.2-13.7 3.3Z"/>
		<path class="new_madrid" d="M955.9 705.6c-2.4-.1-.3-1.6-1.4-2.9-1.6-1.8-2.9 1.3-2.9-2.1s-3.3-4.8-4.8-6.4c-1.4-1.5-5.8-10-7.7-9.7v-2c-2.8 0-.3-3.1-2.1-3.1-1.9 0-2.4-.9-1.8-3.1l-2.5.2-.3-4h-11.3c-1 0 .5 1.5-1 1.5-4.6-.1-9.3.7-13.9.2-2.5.7-.8 14.1-.8 17.1l-.2 19.5c0 2.1 1 5.3-1.6 5.3l-12.2-.2-23.3-.3c-1.1 4 .8 8 1.1 12 .2 2.7-.6 7.3-1.1 10.1-.6 3.6.7 7.9-.4 11.3-.8 2.4-3 9.6 0 9.4 6.6-.4 13.6.4 20.3.4s8.6 1.4 10.5-.2c1.1-.9.1-6.2 1.6-7 3.4-1.9 6 .4 7.8 2.5 3.2 3.6 6.7 1.1 10.2.7 3.7-.4 4.9 2.3 6.6 4.9 1.4 2.2 5.3 3.9 7.4 5 5.7-4.5-2.2-11-2.9-15.2-.6-4 8-8.2 1.2-11.5-2.2-1.7-3.7-2-4.2-4.7-.6-3 1.2-5.9 4.4-5.5 3.6.5 15.2 4.4 8.9 10.2h0l.3-.3v.3h-.3 0l-.9 1.5.7-.7.6-1.1-.6 1.1-.7.7c-.8 1.5-1.7 3.4-1.9 4.9.2 1.3 1.1 2.4 3 2.8h1.5c1-.2 1.9-.9 2.7-1.7 1.7-1.9 2.8-5 4.2-6.6l.1-.2.3-.6c1.9-4.5 5.5-23.9 12-18.5a22 22 0 0 0-1.2-8.3c-1.1-2.5-2.9-3.5-3.3-5.7Z"/>
		<path class="dunklin" d="M867.7 758.2c-2.9.2-.7-7 0-9.4 1.1-3.4-.2-7.7.4-11.3.5-2.8 1.4-7.4 1.1-10.1-.3-4-2.2-8-1.1-12h-29c0-.2-.1-.1-.2 0-.5 1.1-1.9 2.1-1.8 2.8.2 2.7-3 .5-3.3 1.8-.9 3 .2 7.5-.8 10.8-3.2-3.5-4.3 6.2-4.4 8.2h11.1c.5 2.4 1.5 7.7 4 7.3 1.1 2.5-.6 3.9-.3 6.5.3 2.5 1.4 1.7 2.5 2.4 3.8 2.1 10.3 1.9 8.1 8.3-.5 1.5-1.3 2.8-1.7 4.3-.6 2.3.5 2.3.6 3.8 0 .8.2 5.4-.7 6.4-1.9 2.1-4.8.9-6.7 2.4-2.9 2.3-2.1 6.6-4 8.8-1.7 2.1-5.9 2.8-8 3.7-2.8 1.2-5.2 3-6.6 6.2-1 2.2 1 4.1-3.1 5.6-.9.3-5.8 1-5.5 2.7.3 2.2-2.1 1.7-3.2 3.2-1.4 1.9-1.8 4.3-3.3 6.2-1 1.3-1.4 3.1-2.1 4.4-1.3 2.5-3.2 3.7-4.2 7.4l62.4-1.3c-1-22.9-.2-46.2-.2-69.1Z"/>
		<path class="madison" d="M781.6 542.4c0 .9-1.7 0-1.7 1.7l-.1 16.6c0 11-.3 22 0 33h60.3c-.4-17.3.8-34.2 0-51.3l-.3-7.9-57.6.2-.5 7.7Z"/>
		<path class="pemiscot" d="M924.6 759.4c-1.7-2.5-2.9-5.3-6.6-4.9-3.5.4-7 2.9-10.2-.7-1.9-2.1-4.4-4.4-7.8-2.5-1.5.8-.5 6.1-1.6 7-1.9 1.6-8.2.2-10.5.2-6.7 0-13.7-.8-20.3-.4 0 23-.8 46.2.2 69.1l34.8-.3s0 0 0 0h0l.1-.2 1-1.3-1 1.3h0c1.6-2.2 5.3-2.8 5.7-5.7.4-2.6.4-5.2.6-7.8.7-6.6 8.2-4.8 11.6-8 6-5.7-3.7-11.5-7.3-14.8-1.9-1.8-11.2-9.5-3.5-9.2 6 .2 10 2.9 16 .6 7-2.6 3.8-4.4-1.3-6.2-3.3-1.2-10.4-6.3-5.8-10.5 3.2-2.9 9.4 2.2 12.9-.7-2.1-1.2-5.9-2.8-7.4-5Z"/>
		<path class="st_louis" d="M831.6 323.2c-2.1-.9-6.3-3.3-8-4.9-1.8-1.7-2.3-4.3-4.7-5.4-7.1-3.4-7 5.3-9.9 9.1-3.5 4.7-11-1.5-15.1 2.8-2.2 2.3-2.6 6.1-4 8.9-1.4 2.8-3.5 4.1-5.5 6.7-3.2 4.3-3.1 9.8-10.8 9-4.5-.5-8-3.5-12.4.6-1.5 1.5-2 3.5-3.8 5a16.4 16.4 0 0 1-4.8 2.7l-.3 30.5.2 1.2c.5-2.4 9.1-2.2 7.2 2.4 1 0 2.3 0 3-.3 2.7-1.1-.2-3.6 1.2-5.1 2.6-3 5 2 7.6.2 1.4-1 1.9-3.3 2.3-4.9.2-1 5.8-.3 7-.3l11-.1c3.5 0 9.4-.8 9.5 2.9 0 2.4-2.4-.4-1 3.5.8 2.3 2.8 1.8 3.1 2.6 1.1 2.9 6.8-3.2 8.5.6.7 1.5-1.3 2.9-1.7 4.3-.6 2.1.6 4.7 1.3 6.7 8.4-6.9 7.5-16.8 12.3-25.7-3.2-5.8-10.5-6.2-8.3-13.9 1.7-5.9.9-9.5 5.1-14.2l8.2-9.1c2.1-2.2 4.5-2.7 6.2-5.6 2.1-3.6 5.7-4.3 9.6-4.9-.7-7-8.6-3.5-12.9-5.3Z"/>
		<path class="st_charles" d="m759.5 307.8-4.1-.5c.5.6 1.2 2 1.7 2.4-6.1-1.2-.9-4.5-6.5-3.8-4.7.5-11.7 1.7-8.4 8.3-4.2.3-7.5-1.3-11.4-1.7-2-.2-4.2.9-6.1.9s-3.2-1.8-5.4-1.8c.2 1.3.2 2.6.1 3.9 1.1 19.1-.5 38.9-1 57.9h0c9.3 4.2 13.9-4.2 21.8-6.3 3.4-.9 6.4 2.9 7.6-1.9.7-2.7 3-5.8 5.1-7.4 1.6-.5 3.4-1.5 4.8-2.7 1.8-1.6 2.2-3.6 3.8-5 4.4-4.2 7.9-1.1 12.4-.6 7.7.8 7.7-4.7 10.8-9 2-2.7 4.1-3.9 5.5-6.7 1.4-2.7 1.8-6.5 4-8.9 4.1-4.4 11.6 1.8 15.1-2.8 2.8-3.8 2.8-12.6 9.9-9.1 2.4 1.2 2.9 3.7 4.7 5.4 1.7 1.6 5.8 4 8 4.9 4.3 1.7 12.2-1.8 12.9 5.3 5.6-8.6-8.9-13.4-14.1-16.7-3.5-2.3-6.1-5.3-10.4-5.3s-9.8-.9-14.2-3.9c-3.6-2.5-8.6-4.1-12.9-2.1-4.3 2-6.3 7.9-9.6 11.4-3.5 3.6-8.7 4.9-13.1 2.3-4.2-2.4-4.5-6.3-6.8-10.1-2.6.5-6.8.9-3.8 3.8Z"/>
		<path class="ralls" d="M610.8 170.1c-4.8 0-4.4-.4-4.6 4.8 0 9.4 1.1 17.3.6 27.4-.4 9.6-1.5 19.8-.8 29.4 2 4.7 13.7 2.7 18.2 2.8l23.3.7-2.1-16.6c-1-7.5-1.7-7.1 4.3-11.1l33.7-22.1c-2.6-3.1-6.5-3.8-8.8-7.3-2.1-3.3-5.9-5.7-8.9-8.2l-34.7.1h-20.4Z"/>
		<path class="pike" d="M645.5 218.6c.8 5.5 1.4 11.1 2.1 16.6 1.5 10.3 2.7 20.6 4 30.9l22.6.8c1.7 0 9.7 1.2 10.7 0 1.5-1.7.6-10.4.8-12.8.3-4.2 11-2 14.4-2 17.8 0 35.8.8 53.6.2-.4-3.4-3.2-5.5-4.9-8-2.5-3.6-4.6-6.9-8.4-9.6-7.3-5.1-13.9-10.3-21.2-15.3-3.8-2.6-8.5-4-11.6-7.4a19.8 19.8 0 0 1-5-10c-1.4-5.3-6.5-3.7-10.2-6.5-3.9-2.8-5.4-7-8.8-10.1h0a6474 6474 0 0 0-33.7 22.1c-6 3.9-5.3 3.6-4.3 11.1Z"/>
		<path class="lincoln" d="M700.1 252.2c-3.4 0-14.1-2.2-14.4 2-.1 2.4.8 11.1-.8 12.8-1 1.1-8.9 0-10.7 0 .4 8.7-.4 17.6-.6 26.2 1.8.2 10.4.1 10.4 1 0 3.4 0 6.9-.3 10.3l11.4.6c2.9.2-.4 8.2 1.1 9.8 1.1 1.1 9.1.2 10.7.2l12.3.3-.1-3.9c2.2 0 3.7 1.8 5.4 1.8s4.1-1.1 6.1-.9c4 .5 7.2 2 11.4 1.7-3.3-6.6 3.7-7.8 8.4-8.3 5.7-.7.4 2.6 6.5 3.8-.5-.4-1.2-1.9-1.7-2.4l4.1.5c-3-2.9 1.2-3.4 3.8-3.8-5-5.5-6.8-19.6-4.9-26.6 1.4-5.1-2.8-7.1-2.9-12.1 0-4.7-1.1-8.4-1.9-12.9-17.8.7-35.8-.1-53.6-.2Z"/>
		<path class="ripley" d="M776 721.8c-.9-2.4-2.5 1.6-2.5-3.4v-11.5c0-2.4-4.6.3-4.7-1.8l-.2-10-.2-10.9c0-2.4-3.1-1.4-5.1-1.5-22.5-.1-44.9-1.3-67.4-1.5l-1.1 30.6c-.2 8.8-2.2 19.2-.8 27.9 27.3.7 54.8 0 82.2-.4-1.1-5.1 1.6-12.7-.2-17.5Z"/>
		<path class="marion" d="M587.6 123.1c.4 17.1.3 34.4-.3 51.4l19 .4c.2-5.2-.3-4.7 4.6-4.8h20.4l34.7-.1c-3.9-4-7.8-4.7-7.6-10.9.2-5.2-.1-9.4-4.7-12.2-3.2-2-8-6.6-7.5-10.8.5-4.1 6.6-7.9 1.4-12.3-19.9.9-40.1-.4-60-.5Z"/>
		<path class="clark" d="M644.1 45.1c-.9-1.2-2.2 0-2.9-.5-1.2-.9-.3-2.4-2.6-2.9-4.4-1-3.3-1.2-3.7-4.6-.2-1.7-2-1.3-.9-3.1 1.4-2.3-2-2.2-3.5-2.6-1.8-.4-8.7-6.5-9.1-8.5-1.1-6-4.4-5.2-9.6-7.4-1.9-.8.6-3.8-1.2-5.5-1.6-1.5-3.7-2.1-5.7-3-1.9-.8-.7-1.7-3.1-1.7h-10.3l-18.5.2c.6 18-.7 36.4-1.2 54.4.2 2.7.1 5.4.2 8 22.6.4 45.1.7 67.7 1.3.1-7.9 3-15 7-22.1-.9-.7-2-1.2-2.7-2.2Z"/>
		<path class="lewis" d="M571.8 75.3c2.8 1.5.3 18.1.1 21.6l-.9 25.9 16.6.3c19.9.2 40.1 1.4 60 .5a71.5 71.5 0 0 1-7.8-54.3c-22.6-.6-45.1-1-67.7-1.3l-.3 7.3Z"/>
		<path class="butler" d="M833.1 730.7c1.1-3.2 0-7.8.8-10.8.4-1.2 3.5.9 3.3-1.8 0-.7 1.3-1.7 1.8-2.8h.2a3.5 3.5 0 0 0 0-4.9c2.9 0 .2-2.2.4-4.8.1-1.6-1.7-3.7-1.1-5.2 1.4-3-8.5-10.1-7.5-12 2.1-3.8-1.1-5.2-2.2-8.2-.9-2.6.9-2.1-1.3-4.8-1-1.2-3.6-2.6-4-4-.4-1.5 3.6-3.8-.3-4.2 1.4-1.4.5-2.7-.2-4.2-20.7 0-41.4-.4-62.1-.4.2 2 .1 4.1.2 6.1 0 2.5 2 1.2 2 2.5v11.5c2 .1 5.1-.9 5.1 1.5l.2 10.9.2 10c0 2 4.7-.6 4.7 1.8v11.5c0 5 1.6 1 2.5 3.4 1.8 4.8-.9 12.5.2 17.5 17.5-.1 34.9-.1 52.4-.4h.1c.2-2 1.2-11.6 4.4-8.2Z"/>
		<path class="mercer" d="M299.7 30.4c0 1.4 1.8-.3 2 .5.2.9 0 2 .1 2.9l.2 33.4h58.9l.4-22.5c.7-12.6-.5-21.1.3-34.1-20.6 0-41.2 0-61.9.3l.2 14.8v4.8Z"/>
		<path class="schuyler" d="M462.3 16.7c-.3 1.1-4.4 1.8-4 3.5.1.5 4.3 1.7 4.9 1.8-4.8.9.8 3.1-.4 5.6-1.1 2.3-2.6.3-3.3 3.6-.2.9-1 2.9-.8 3.7.4 2.5 2.7 2.6 4.5 4.9 1.4 1.8 3.3 6.2-1 3.8-.6 3-.2 6.5.3 9.6 16.6-.3 33.1-.6 49.7-.7-.2-15.1-.4-30.3-.8-45.4-17.7.6-35.3 1.3-53 1.8-2.4 3.6 5.2 3.4 3.9 7.7Z"/>
		<path class="putnam" d="M361.2 44.6c3.5 4.1 15.3 1.5 20.1 1.5H437.4l-.4 7.3 25.5-.2c-.4-3.1-.8-6.6-.3-9.6 4.4 2.4 2.4-2 1-3.8-1.8-2.4-4.2-2.4-4.5-4.9-.1-.8.6-2.8.8-3.7.7-3.2 2.2-1.3 3.3-3.6 1.2-2.5-4.4-4.7.4-5.6-.6-.2-4.7-1.3-4.9-1.8-.4-1.7 3.7-2.4 4-3.5 1.3-4.4-6.3-4.1-3.9-7.7l-96.9 1.6c-.7 13.1.4 21.6-.3 34.1Z"/>
		<path class="knox" d="M512.8 106.9c2.2 1.4.7 8.6.7 11.3-.1 6.2 2.7 4.3 8.6 4.6h48.8l.9-25.9c.1-3.5 2.7-20-.1-21.6l.3-7.3c0-2.7 0-5.4-.2-8-19.7 0-39.3 0-59 .2 0 15.6.2 31.1 0 46.7Z"/>
		<path class="scotland" d="m512.9 60.2 59-.2c.5-18 1.8-36.4 1.2-54.4-20.6.8-41.1 1.5-61.7 1.5.4 15.1.6 30.3.8 45.4l.7 7.7Z"/>
		<path class="atchison" d="M91.1 66.3c0-10.8.3-21.5.5-32.3 0-.7.6-4.7.1-5.2-1.1-1-4.9 1.2-4.9-.9L86.7 10C59.5 9.5 32.2 9 5 8.7c1.3 6 .2 10 7.8 11.3 7.6 1.3.7-7.5 5.9-7.2 2.5.2 3.5 5.2 2.1 6.7-1.1 1.2-6.4 3.6-6 5.8.5 3.6-2.5 3 1.8 6 1.9 1.3 4 5.7 2.7 8l-1-.3c.3 1.5 1.8 2.8 2.8 4.1 1.3 1.6.9 4 2 5.7.9 1.5 2.9 2.7 1.8 4.3-1 1.4-3.5 1.3-4.1 2.6-2.4 5.1 5.8 1.8 7.8 2.6 5.3 2.2 7.4 1.3 7.1 7.8 18.5.7 37.1 0 55.6 0Z"/>
		<path class="nodaway" d="M91.7 28.9c.5.5 0 4.5-.1 5.2l-.5 32.3c4-.5 8.5.2 12.6.3 4.6 0 3.7 4.5 3.5 7.3 0 1.5-1 4.7-.8 6 .2 1.6 1.6 2.5 2 3.9.6 2.5-.7 4.1 1.8 6.1l65.4.8c.6-15.5 1.6-31 1.7-46.5-4 .5.7-14.9-2.4-14.9-3.7 0-2.4-2.6-2.4-6.1V11.2c-28.6-.2-57.2-.8-85.9-1.1l.1 17.9c0 2.1 3.9-.1 4.9.9Z"/>
		<path class="worth" d="M174.9 29.4c3.1 0-1.6 15.4 2.4 14.9l57.2.6c.4-3.7 2.3-14.9-1.6-15.2-1.6-.1-.6-15.2-.5-17.6-19.9-.4-39.8-.7-59.8-.9v12.1c0 3.4-1.3 6 2.4 6.1Z"/>
		<path class="harrison" d="M232.9 29.8c4 .3 2.1 11.5 1.6 15.2v44.3c22.3.6 44.6 1 66.9 1l.5-23.2-.2-33.4c0-.9.1-2-.1-2.9-.2-.8-2 .9-2-.5v-4.8c0-4.9 0-9.9-.2-14.8-22.4.7-44.8 1.2-67.2 1.4 0 2.4-1 17.5.5 17.6Z"/>
		<path class="st_francois" d="M765 534.4c1.6 2.2 13.9.4 17.1.4l57.6-.2 5.3-5.2c-3-2.8-5.1-7.3-8.5-4.4-3.4 3-3.5 4.7-6.6 1.7l-24-22.7c-2-1.9-13.7-10.5-11.2-12.7l19.5-17.9-13.4-10.5c-5.1 2.3-10.8 3.4-16.2 5-4.4 1.4-8.7 3.3-13.4 2.2-2.9-.7-.3-1.3-.4-2-.2-.8 0-3.8-.2-5-.3-2.5 3.3-8.6-3.1-6.4l-1.7 61.6c-.1 2.6-2.2 14.1-.7 16.2Z"/>
		<path class="washington" d="M698.5 474c-.4 14.4 0 29.1-1.3 43.5 22.8.7 45.6.5 68.5.7l1.7-61.6c-4.5.4-.9-4.5-4.1-2.9-3.3 1.6-3.3-2.5-4.9-4.8-3.5-5-8.2-10.2-12.3-15.1-15.5.3-31.5.2-47.6.6 1.1 13 .5 26.5.2 39.5Z"/>
		<path class="warren" d="M672.8 320c0 1.5-3.8-.4-4.6-.4-3.9 0-16.7-2.3-16.8 2.1l-.8 22c2.7-.2 5.1 1.4 7.5 2.6 6-.3 9.6.2 14.6 4 4.6 3.5 6.4 9.6 11.5 11.9 3.5 1.6 7.2 1.4 10.9 1.4s6.7-3 10.4-.4c2.4 1.7 3 4.4 4.9 6.2 2.1 2.1 5.4 2.6 8 3.9.6-19.1 2.1-38.9 1-57.9l-12.3-.3c-1.5 0-9.6.9-10.7-.2-1.6-1.7 1.8-9.7-1.1-9.8l-11.4-.6c.3-3.4.2-6.9.3-10.3 0-.9-8.7-.8-10.4-1-.2 6.1-.2 12.2-.6 18.3-.2 2.8-.1 5.7-.3 8.5Z"/>
		<path class="franklin" d="M705.5 363.3c-3.7-2.6-6.7.4-10.4.4s-7.4.1-10.9-1.4c-5.2-2.3-7-8.4-11.5-11.9-5-3.8-8.6-4.3-14.6-4-.2 16.8 1.3 33.5 0 50.3 2.6.8-.1 33.1-.3 36.7v1c13.5.4 27.2.1 40.8.1 16.2-.4 32.2-.3 47.6-.6 2.6-15.3 6.2-30 6.4-45.6l.3-30.5a15.5 15.5 0 0 0-5.1 7.4c-1.2 4.8-4.2 1-7.6 1.9-7.9 2.2-12.4 10.6-21.8 6.4h0c-2.6-1.4-5.9-1.9-8-4-1.8-1.8-2.5-4.6-4.9-6.2Z"/>
		<path class="holt" d="M121.1 127.9c-1.1-.6-3 .2-4-1l-.1-.2.1.2c.7.4.9-5.3.9-5.1-.1-1.8-.2-3.9-.7-5.6-.6-2.1-3.3-4.5-1.4-6.9 1-1.3.8-1.4.5-2.7-.6-2.1-3-3.7-4.8-2 0-2.8-2.6-3.1-2.7-5.9 0-2.6 1.2-5.8 1.2-8.7-2.5-2.1-1.2-3.7-1.8-6.1-.4-1.5-1.8-2.3-2-3.9-.2-1.3.7-4.5.8-6 .2-2.8 1.1-7.3-3.5-7.3-4.2 0-8.6-.8-12.6-.3-18.5 0-37.1.7-55.6 0 2.6 3.1 5.3 1.8 8.7 2.9 2.4.8 4.6 4 5.5 6.5.8 2.4 0 4.8.9 7 1.3 3.1 5.3 6.1 7.5 8.1 1.5 1.4 4.4 3.9 3.6 6.4-.5 1.8-5.5 3.7-4.5 6.8.2.8 6.3 4.5 7.2 4.6 4 .2 4.8 4.5 7.8 5.7 1.7 2.1 4.5 3 6 4.8 1.8 2.2 3.9 4.8 6.7 5.7 1.4.4 2.9.3 3.8 1.5.7 1 .6 3.5 1.5 4.2 2.5 1.9 4.8-.1 7.5 1.6 2.2 1.4 3.6 5.7 7.1 5.7s5.3-.7 6.5-.3c4.3 1.4 3-3.6 5.7-4.6 2.2-.8 6.1.2 8.6 0-1.2-1.8-2.5-4.2-4.4-5.3Z"/>
		<path class="audrain" d="m517.9 248 17.1.7c2.3 0 12.8-1.2 14.6.7 1.7 1.8-.6 14.5-.7 17-.2 4.7-.8 9.6-.4 14.3l69.7.8c.3-5.1.9-10.3.7-15.4h32.9c-1.3-10.2-2.5-20.5-4-30.8l-23.3-.7c-4.6-.1-16.2 1.9-18.2-2.8l-87.9-1.3c-.4 5.8-.3 11.7-.4 17.5Z"/>
		<path class="montgomery" d="M618.1 281.4c.9 21.1-1 42.9-1.6 64 6.3-.5 9.8 6.1 16.9 3.3 5.4-2.2 10.9-5.3 17.2-5l.8-22c.2-4.4 12.9-2.1 16.8-2.1.9 0 4.6 1.9 4.6.4.1-2.8 0-5.7.3-8.5.4-6.1.4-12.2.6-18.3.2-8.7 1-17.6.6-26.2l-22.6-.8h-32.9c.2 5-.4 10.2-.7 15.2Z"/>
		<path class="monroe" d="M544.6 174.1c-7.9 0-7.4-1-7.8 7.3-.2 3.9-2.1 2.6-5.9 2.6h-10.6c-.7 15.5-1.1 31.1-2 46.5 29.3.3 58.6.7 87.9 1.3-.7-9.6.4-19.8.8-29.4.4-10.2-.6-18-.6-27.4l-19-.4c-13.9 1.4-28.6-.2-42.6-.4Z"/>
		<path class="shelby" d="M522.2 122.7c-.7 20.4-1.5 40.8-1.8 61.3H531c3.8 0 5.7 1.4 5.9-2.6.4-8.3 0-7.4 7.8-7.3 14 .2 28.7 1.7 42.6.4.6-17 .7-34.4.3-51.4l-16.6-.3h-48.8Z"/>
		<path class="jackson" d="M249.8 307.8c.3-13.5 0-27.4 1.2-40.9-1.5-2.4-3.7-5.8-6.4-6.7-4.4-1.6-6 .1-2.3-4.3-3-2.9-4 0-7-.4-2.9-1.8-4.9-5.7-8.8-5.2-4.7.6-5.5 2.5-8.3 6.2-1.3 1.7-4.5 6.6-6.4 6-1.4-.4-3.6-7.9-5.7-4.2.3-.4.8 3.6.7 4-.3 1.6-.9 2.2-1.9 3.6-2.9 4-4.2 3.9-7.9 1.8-4.3-2.5-6.1-2.9-10.5 0-2.9 1.9-5.8 4.2-9.2 4.4l-.6 49.2 72.3 1.1.8-14.7Z"/>
		<path class="barry" d="M329.6 684.8c.1-3.6.8-3.6-3.1-3.9-4.7-.4-3.2-2.3-3.1-6.9l.1-11.3c-10.5 1.1-21.8-.3-32.4-.5l-33.3-.7c-1.5 10.4-1 21.7-1.1 32.2l-1 45.6h.2c23.9.1 47.9 0 71.8.2l1.6-42.7.4-12.1Z"/>
		<path class="jasper" d="M259.1 597.7c-3.9-.5-4.5.2-4.5-3.8l-.1-6.7-78.7-2.5c-2 17.2-.3 36.2-.4 53.6 27.6.3 55.1.8 82.7 1.3l1.1-42Z"/>
		<path class="mcdonald" d="M175.3 691.1c0 16.2-1 32.4 1.6 48.4 26.1-.1 52.6 1 78.7-.2l1-45.6c-27.1-1-54.2-1.9-81.4-2.6Z"/>
		<path class="newton" d="M257.8 661.5c.1-7.3.7-14.6.3-21.9-27.6-.5-55.1-1-82.7-1.3v10.1c1 14.1.1 28.5-.1 42.7l81.4 2.6c.2-10.5-.3-21.8 1.1-32.2Z"/>
		<path class="andrew" d="M175.9 147.1c.7-13.6-.1-27.5-.3-41.1V90.7l-65.4-.8c0 2.9-1.2 6.1-1.2 8.7 0 2.8 2.6 3.2 2.7 5.9 1.8-1.8 4.2-.1 4.8 2 .3 1.3.6 1.4-.5 2.7-2 2.4.7 4.7 1.4 6.9.5 1.7.5 3.8.7 5.6 0-.3-.2 5.5-.9 5.1.9 1.2 2.9.4 4 1 1.9 1.1 3.2 3.5 4.4 5.3 7.3-.6 1.1 5.2 1.3 7.2.6 5 7.5 3 9.4 6.1 13.2 1 26.5.5 39.7.6Z"/>
		<path class="taney" d="m450.2 683.7-21.2-1-59.4-.8-.9 28.6c-.3 9.4-1.8 19.6-.8 29 27.1-.4 54.5-.8 81.6 0h.1c-.1-18.6.3-37.2.6-55.8Z"/>
		<path class="howell" d="M611.6 705.3c0-1.9-.4-18.5 1.7-18.7 1.8-.1 1.1-15 1.1-17.2v-29c-9.2.9-19.5-.5-28.7-.8l-34.2-.9-1.1 46.5h-2.8l-1.7 53.9c21.5-1.1 43.6.1 65.1 0 .9-12.7.2-21.8.6-34Z"/>
		<path class="ozark" d="M450.2 683.7c-.3 18.6-.8 37.2-.6 55.8 32 .6 64.3-1.7 96.3-.2l1.7-54-97.4-1.6Z"/>
		<path class="stone" d="m368.7 710.4.9-28.6c-1.7-.1-5.2.7-5.2-1.4l.1-11.5c0-1.6.6-17.4-.1-17.4l-40.6-.9-.3 12.1-.1 11.3c0 4.5-1.6 6.5 3.1 6.9 3.8.3 3.2.3 3.1 3.9l-.4 12.1c-.4 14.3-1 28.5-1.6 42.7 13.4.3 26.9 0 40.2-.2-1-9.4.5-19.6.8-29Z"/>
		<path class="oregon" d="m694.8 711.9 1.1-30.6-15.4-.6c-1.7 0-.8-8.4-.8-10.2-21.7-.4-43.5-.7-65.2-.9 0 2.2.6 17-1.1 17.2-2.1.1-1.6 16.7-1.7 18.7-.4 12.2.3 21.3-.6 34 27.7 0 55.3.7 83 .4-1.4-8.7.6-19 .8-27.9Z"/>
		<path class="platte" d="M176.4 197c-23.9 0-48.1-.9-72 .5 1.6 2.5 5 2.9 6.4 5.1.9 1.4.6 3.1 1.3 4.3 1.5 2.7 3.6 3.4 6 5 1.2.8 2.7 1.2 3.7 2.2.9.9.6 2.6 1.7 3.4 2.3 1.7 3.6 5.7 6.6 6.8 2 .7 3.6-1.3 4.3 1.3.4 1.6-2.3 3.7-2.4 5.4-.6 7.6 6.5 9.9 10.8 14.4 2.7 2.8.7 3.9 1.4 6.8.7 2.7 2.7 3 4.6 4.2 3.7 2.4 8 5.4 12.5 5.6 3.2.1 3.9-1.4 7 0 2.4 1 3.7 2.9 6.7 2.8h0c.6 0 1.2.1 1.7.5h0l.3-53.6-.6-14.6Z"/>
		<path class="clay" d="M196.9 267.7c3.7 2.2 5 2.2 7.9-1.8 1-1.4 1.7-2 1.9-3.6 0-.4-.5-4.4-.7-4 2.2-3.6 4.3 3.8 5.7 4.2 2 .6 5.1-4.3 6.4-6 2.8-3.7 3.6-5.7 8.3-6.2 4-.5 5.9 3.4 8.8 5.2.7-14.7.3-29.8-.2-44.5l-58.1.5c0 17.9 0 35.7-.3 53.6 3.7-1.9.5 5.9.6 7.1 3.3-.2 6.2-2.5 9.2-4.4 4.4-2.9 6.2-2.5 10.5 0Z"/>
		<path class="barton" d="M255.6 545v-10.5l-79.9-1.4v51.7l78.7 2.5c.3-13.9-.5-28.4 1.2-42.2Z"/>
		<path class="buchanan" d="M176.4 197c0-12.2-.1-24.5-.3-36.7l-.2-13.1c-13.2-.2-26.5.3-39.7-.6 2.5 4.1-2.3 5.1-5.4 4.9-5.4-.3-1.4 6.9 3.1 6.6 1.6 0 3.1-2.6 4.8-1.1 1.3 1.1.6 2.9-.5 4.1-4.4 4.6-7.6-.8-12.1.6-4.8 1.5-1.3 7.1-4.4 9.9-1.6 1.4-4.5 0-6.3 1.4a16.8 16.8 0 0 0-4.3 6.5c-.7 1.6-2 4.3-.9 5.9.9 1.4 1.5 1.7.7 3.2-1.3 2.4-5.4.7-6.6 2-1.8 2-1 5 .2 7 23.9-1.3 48.1-.5 72-.5Z"/>
		<path class="vernon" d="m256.9 489.3 1.2-25c-2.5 2.8-4.1-1.3-6.8-2-.9-.2-1 3.2-2 1.2-.7-1.4-1.5-1.8-3-2.3-3.7-1.3-5.9 2.5-8.5 3.3 0 0-.6-1.7-.9-1.6-.9.2-1.2 1.2-1.7 1.3-1.7.3-2.7 1.4-4.3 1.7-2.8.4 0-1.5-.1-2.6-.5-2.7-1.6-1.9-4.3-1.9l-21.2-.4c-9.7-.2-19.7-.8-29.4-.2 2.2 23.7-.3 48.4-.3 72.3l79.9 1.4c.9-15.9.3-28.7 1.2-45.2Z"/>
		<path class="bates" d="m205.3 461 21.2.4c2.7 0 3.8-.8 4.3 1.9.2 1-2.7 3 .1 2.6 1.7-.3 2.7-1.3 4.3-1.7.5 0 .8-1.1 1.7-1.3.3 0 1 1.6.9 1.6 2.6-.8 4.8-4.6 8.5-3.3 1.4.5 2.2.9 3 2.3 1 2 1.1-1.4 2-1.2 2.6.7 4.2 4.7 6.8 2l1.9-31.5c-3.8 0-3.9.3-3.9-3.2l.4-13.7.6-23.3v.4c-2-3.2-5.5-1.9-7.9-1.5 0 0-1.8-.6-2.4-.5-.4 0-1.2 1.3-1.9 1.4-1.5.4-3.4.5-4.9.4-6.8-.4-10.5-4.8-17.2-3.4-1.8-3.7-16.9-2-20.5-2.1l-26.4-.8c1.8 24.4.3 49.7.2 74.2 9.7-.6 19.7 0 29.4.2Z"/>
		<path class="cass" d="M222.7 389.5c6.7-1.4 10.4 3 17.2 3.4 1.5 0 3.4 0 4.9-.4.6-.2 1.4-1.4 1.9-1.4.6 0 2.4.5 2.4.5 2.4-.4 5.9-1.7 7.8 1.5v-.4c0-.3 0-.5.2-.7l.3-4.1h-.8c0-6.1.5-12.1.7-18.2-4.3-.2-7.9 1.5-7.8-3.2 0-4.1 0-8.3.4-12.4-3.2.2-1.4-11-1.3-13.5l.4-18.2-72.3-1.1c1.6 21.4-.6 43.8-.9 65.2l26.4.8c3.6.1 18.7-1.7 20.5 2.1Z"/>
	</g>
	<path id="missouri-state-outline" fill="none" stroke="#000" stroke-width="3" d="M985.9 683.5c-1.3-1.9-1.2-5.3 1-6.5 5.2-2.8 13.3-23.9 3.5-25-2.2 1.1-6.6 2.6-8.8.5-1.6-1.5-.2-4.4-1.3-6.3-1.5-2.7-5-3.1-6.6-6-1-1.7-.8-4.7-2.7-5.9-2.3-1.6-5.2-1.2-6.5 1.4-1.6 3.3.5 4.3 2.5 6.3 1.1 1.1 6.1 3.9 3.9 6.1-2.4 2.4-4.5 2.1-6.7-.3-2.7-2.2-11.8-4.9-11.2-9.2.5-3.4 2-3.9.2-7.4-1.4-2.6-3.9-3.4-5.7-5.5-1.8-2.1-1.6-5.1-2.7-7.2-1.4-2.9-2.7-4.1-3.6-7.5-1-3.8 2.7-7.3-3.2-7h-.3c-5.5-1.5-4.8-8.6-2.2-12.4 1.4-2 4.6-2.6 6.9-2.7 3.6-.2 3.7-4 4-6.7.9-7.6-2.3-9.4-6.4-15.4a35 35 0 0 1-7.2-19c-1.3-4.2 2.2-7.3.7-11.3-1.6-4 2.7-8-1.3-10.8-4.1-2.8-10-2.4-14.3-5.3-1.5-1-3.1-3.1-5-3.4-3-.5-1.5-3.5-2-5.6-1.2-5.6-6.3-6-8.9-10.5-2.8-4.8-7.8-5.6-11.9-8.3-1.5-.9-2.6-3.1-4.3-3.7-4.2-1.6-1.4 0-3.6 1.4-4.3 2.5-6.1 2.2-10.6 2.4-2.8-2-9.2-6.1-4.6-10.1 3.5-3.1 1.8-5.1-1.9-4.8-4.3.3-4.9-1.9-7.7-4.3-5.6-4.8-11-6.1-15.4-12.1-2.4-3.3-6.4-3-9.6-5-3-1.9-5.4-5.3-7.7-7.9-1.8-1.8-3.1-4.1-4.6-6.2-1.7-2.4-4.5-2.2-6.6-3.9-4.2-3.3-5.8-8.9-6.2-13.9-.5-6.3-1.5-18.1 4.2-22.5 8.4-6.9 7.5-16.8 12.3-25.7 3.8-8.9 14.3-11.5 11.4-22.8-1.4-5.6-4.8-8.6-.2-13.8 2.5-2.8 8.4-7.6 9.6-11.1 5.6-8.6-8.9-13.4-14.1-16.7-3.5-2.3-6.1-5.3-10.4-5.3s-9.8-.9-14.2-3.9c-3.6-2.5-8.6-4.1-12.9-2.1-4.3 2-6.3 7.9-9.6 11.4-3.5 3.6-8.7 4.9-13.1 2.3-4.2-2.4-4.5-6.3-6.8-10.1-5-5.5-6.8-19.6-4.9-26.6 1.4-5.1-2.8-7.1-2.9-12.1 0-4.7-1.1-8.4-1.9-12.9-.4-3.4-3.2-5.5-4.9-8-2.5-3.6-4.6-6.9-8.4-9.6-7.3-5.1-13.9-10.3-21.2-15.3-3.8-2.6-8.5-4-11.6-7.4a19.8 19.8 0 0 1-5-10c-1.4-5.3-6.5-3.7-10.2-6.5-3.9-2.8-5.4-7-8.8-10.1h0c-2.6-3.1-6.5-3.8-8.8-7.4-2.1-3.3-5.9-5.7-8.9-8.2-3.9-4-7.8-4.7-7.6-10.9.2-5.2-.1-9.4-4.7-12.2-3.2-2-8-6.6-7.5-10.8.5-4.1 6.6-7.9 1.4-12.3a71.5 71.5 0 0 1-7.8-54.3c.1-7.9 3-15 7-22.1-.9-.7-2-1.2-2.7-2.2-.9-1.2-2.2 0-2.9-.5-1.2-.9-.3-2.4-2.6-2.9-4.4-1-3.3-1.2-3.7-4.6-.2-1.7-2-1.3-.9-3.1 1.4-2.3-2-2.2-3.5-2.6-1.8-.4-8.7-6.5-9.1-8.5-1.1-6-4.4-5.2-9.6-7.4-1.9-.8.6-3.8-1.2-5.5-1.6-1.5-3.7-2.1-5.7-3-1.9-.8-.7-1.7-3.1-1.7h-10.3l-18.5.2c-20.6.8-41.1 1.5-61.7 1.5-17.7.6-35.3 1.3-53 1.8l-96.9 1.6c-20.6 0-41.2 0-61.9.3-22.4.7-44.8 1.2-67.2 1.4-19.9-.4-39.8-.7-59.8-.9-28.6-.2-57.2-.8-85.9-1.1-27.2-.5-54.5-1-81.7-1.3 1.3 6 .2 10 7.8 11.3 7.6 1.3.7-7.5 5.9-7.2 2.5.2 3.5 5.2 2.1 6.7-1.1 1.2-6.4 3.6-6 5.8.5 3.6-2.5 3 1.8 6 1.9 1.3 4 5.7 2.7 8l-1-.3c.3 1.5 1.8 2.8 2.8 4.1 1.3 1.6.9 4 2 5.7.9 1.5 2.9 2.7 1.8 4.3-1 1.4-3.5 1.3-4.1 2.6-2.4 5.1 5.8 1.8 7.8 2.6 5.3 2.2 7.4 1.3 7.1 7.8 2.6 3.1 5.3 1.8 8.7 2.9 2.4.8 4.6 4 5.5 6.5.8 2.4 0 4.8.9 7 1.3 3.1 5.3 6.1 7.5 8.1 1.5 1.4 4.4 3.9 3.6 6.4-.5 1.8-5.5 3.7-4.5 6.8.2.8 6.3 4.5 7.2 4.6 4 .2 4.8 4.5 7.8 5.7 1.7 2.1 4.5 3 6 4.8 1.8 2.2 3.9 4.8 6.7 5.7 1.4.4 2.9.3 3.8 1.5.7 1 .6 3.5 1.5 4.2 2.5 1.9 4.8-.1 7.5 1.6 2.2 1.4 3.6 5.7 7.1 5.7s5.3-.7 6.5-.3c4.3 1.4 3-3.6 5.7-4.6 2.2-.8 6.1.2 8.6 0 7.3-.6 1.1 5.2 1.3 7.2.6 5 7.5 3 9.4 6.1 2.5 4.1-2.3 5.1-5.4 4.9-5.4-.3-1.4 6.9 3.1 6.6 1.6 0 3.1-2.6 4.8-1.1 1.3 1.1.6 2.9-.5 4.1-4.4 4.6-7.6-.8-12.1.6-4.8 1.5-1.3 7.1-4.4 9.9-1.6 1.4-4.5 0-6.3 1.4a16.8 16.8 0 0 0-4.3 6.5c-.7 1.6-2 4.3-.9 5.9.9 1.4 1.5 1.7.7 3.2-1.3 2.4-5.4.7-6.6 2-1.8 2-1 5 .2 7 1.6 2.5 5 2.9 6.4 5.1.9 1.4.6 3.1 1.3 4.3 1.5 2.7 3.6 3.4 6 5 1.2.8 2.7 1.2 3.7 2.2.9.9.6 2.6 1.7 3.4 2.3 1.7 3.6 5.7 6.6 6.8 2 .7 3.6-1.3 4.3 1.3.4 1.6-2.3 3.7-2.4 5.4-.6 7.6 6.5 9.9 10.8 14.4 2.7 2.8.7 3.9 1.4 6.8.7 2.7 2.7 3 4.6 4.2 3.7 2.4 8 5.4 12.5 5.6 3.2.1 3.9-1.4 7 0 2.4 1 3.7 2.9 6.7 2.8h0c.6 0 1.2.1 1.7.5h0c3.7-2 .5 5.8.6 7l-.6 49.2c1.6 21.4-.6 43.8-.9 65.2 1.8 24.4.3 49.7.2 74.2 2.2 23.7-.3 48.4-.3 72.3v51.7c-2 17.2-.3 36.2-.4 53.6v10.1c1 14.1.1 28.5-.1 42.7 0 16.2-1 32.4 1.6 48.4 26.1-.1 52.6 1 78.7-.2h.2c23.9.1 47.9 0 71.8.2 13.4.3 26.9 0 40.2-.2 27.1-.4 54.5-.8 81.6 0h.1c32 .6 64.3-1.7 96.3-.2 21.5-1.1 43.6.1 65.1 0 27.7 0 55.3.7 83 .4 27.3.7 54.8 0 82.2-.4 17.5-.1 34.9-.1 52.4-.4h11.2c.5 2.4 1.5 7.7 4 7.3 1.1 2.5-.6 3.9-.3 6.5.3 2.5 1.4 1.7 2.5 2.4 3.8 2.1 10.3 1.9 8.1 8.3-.5 1.5-1.3 2.8-1.7 4.3-.6 2.3.5 2.3.6 3.8 0 .8.2 5.4-.7 6.4-1.9 2.1-4.8.9-6.7 2.4-2.9 2.3-2.1 6.6-4 8.8-1.7 2.1-5.9 2.8-8 3.7-2.8 1.2-5.2 3-6.6 6.2-1 2.2 1 4.1-3.1 5.6-.9.3-5.8 1-5.5 2.7.3 2.2-2.1 1.7-3.2 3.2-1.4 1.9-1.8 4.3-3.3 6.2-1 1.3-1.4 3.1-2.1 4.4-1.3 2.5-3.2 3.7-4.2 7.4l62.4-1.3 34.8-.3s0 0 0 0h0l.1-.2h0c1.6-2.2 5.3-2.8 5.7-5.7.4-2.6.4-5.2.6-7.8.7-6.6 8.2-4.8 11.6-8 6-5.7-3.7-11.5-7.3-14.8-1.9-1.8-11.2-9.5-3.5-9.2 6 .2 10 2.9 16 .6 7-2.6 3.8-4.4-1.3-6.2-3.3-1.2-10.4-6.3-5.8-10.5 3.2-2.9 9.4 2.2 12.9-.7 5.7-4.5-2.2-11-2.9-15.2-.6-4 8-8.2 1.2-11.5-2.2-1.7-3.7-2-4.2-4.7-.6-3 1.2-5.9 4.4-5.5 3.6.5 15.2 4.4 8.9 10.2l.3-.3v.3h-.3 0l-.9 1.5c-.8 1.5-1.7 3.4-1.9 4.9.2 1.3 1.1 2.4 3 2.8h1.5c1-.2 1.9-.9 2.7-1.7 1.7-1.9 2.8-5 4.2-6.6l.1-.2.3-.6c1.9-4.5 5.5-23.9 12-18.5 5.9.2 7.1 7.4 12.8 7.6 9.1.3 4.8-8.7 8.6-12.5.8-.8 4.6-5.9 4.3-6.3-1.3-1.9-1.3-3.7-2.3-5.4-1.3-2.4-2.7-1.8-2.2-5a16 16 0 0 1 3.3-6.2c1.3-.7 12 .7 7.1-5.4-1.2-1.5-4.8-.8-6.2-2.8Z"/>
</svg>